%TF.GenerationSoftware,KiCad,Pcbnew,5.1.5-52549c5~84~ubuntu19.10.1*%
%TF.CreationDate,2020-01-05T17:23:38+01:00*%
%TF.ProjectId,RPi heating control hat,52506920-6865-4617-9469-6e6720636f6e,rev?*%
%TF.SameCoordinates,Original*%
%TF.FileFunction,Profile,NP*%
%FSLAX46Y46*%
G04 Gerber Fmt 4.6, Leading zero omitted, Abs format (unit mm)*
G04 Created by KiCad (PCBNEW 5.1.5-52549c5~84~ubuntu19.10.1) date 2020-01-05 17:23:38*
%MOMM*%
%LPD*%
G04 APERTURE LIST*
%TA.AperFunction,Profile*%
%ADD10C,0.100000*%
%TD*%
G04 APERTURE END LIST*
D10*
%TO.C,J3*%
X124630000Y-109270000D02*
G75*
G02X122630000Y-109270000I-1000000J0D01*
G01*
X122630000Y-94270000D02*
G75*
G02X124630000Y-94270000I1000000J0D01*
G01*
X78630000Y-98270000D02*
G75*
G02X79630000Y-97270000I1000000J0D01*
G01*
X83630000Y-96270000D02*
G75*
G02X82630000Y-97270000I-1000000J0D01*
G01*
X82630000Y-80270000D02*
G75*
G02X83630000Y-81270000I0J-1000000D01*
G01*
X79630000Y-80270000D02*
G75*
G02X78630000Y-79270000I0J1000000D01*
G01*
X78630000Y-63770000D02*
G75*
G02X81630000Y-60770000I3000000J0D01*
G01*
X81630000Y-116770000D02*
G75*
G02X78630000Y-113770000I0J3000000D01*
G01*
X143630000Y-113770000D02*
G75*
G02X140630000Y-116770000I-3000000J0D01*
G01*
X140630000Y-60770000D02*
G75*
G02X143630000Y-63770000I0J-3000000D01*
G01*
X124630000Y-94270000D02*
X124630000Y-109270000D01*
X122630000Y-94270000D02*
X122630000Y-109270000D01*
X79630000Y-97270000D02*
X82630000Y-97270000D01*
X79630000Y-80270000D02*
X82630000Y-80270000D01*
X78630000Y-79270000D02*
X78630000Y-63770000D01*
X83630000Y-96270000D02*
X83630000Y-81270000D01*
X78630000Y-113770000D02*
X78630000Y-98270000D01*
X140630000Y-116770000D02*
X81630000Y-116770000D01*
X143630000Y-63770000D02*
X143630000Y-113770000D01*
X81630000Y-60770000D02*
X140630000Y-60770000D01*
%TD*%
M02*
