%TF.GenerationSoftware,KiCad,Pcbnew,5.1.5-52549c5~84~ubuntu19.10.1*%
%TF.CreationDate,2020-01-05T17:23:38+01:00*%
%TF.ProjectId,RPi heating control hat,52506920-6865-4617-9469-6e6720636f6e,rev?*%
%TF.SameCoordinates,Original*%
%TF.FileFunction,Soldermask,Top*%
%TF.FilePolarity,Negative*%
%FSLAX46Y46*%
G04 Gerber Fmt 4.6, Leading zero omitted, Abs format (unit mm)*
G04 Created by KiCad (PCBNEW 5.1.5-52549c5~84~ubuntu19.10.1) date 2020-01-05 17:23:38*
%MOMM*%
%LPD*%
G04 APERTURE LIST*
%ADD10C,0.100000*%
%ADD11O,1.200000X1.200000*%
%ADD12R,1.200000X1.200000*%
%ADD13O,2.200000X3.800000*%
%ADD14C,1.000000*%
%ADD15R,1.200000X2.700000*%
%ADD16O,1.900000X1.900000*%
%ADD17R,1.900000X1.900000*%
%ADD18C,6.400000*%
%ADD19C,1.800000*%
%ADD20R,1.800000X1.800000*%
%ADD21R,2.200000X1.700000*%
%ADD22R,2.200000X4.000000*%
%ADD23R,1.400000X1.100000*%
%ADD24R,0.840000X2.200000*%
%ADD25R,1.750000X1.500000*%
%ADD26C,1.200000*%
%ADD27R,4.600000X2.000000*%
%ADD28O,4.200000X2.000000*%
%ADD29O,2.000000X4.200000*%
G04 APERTURE END LIST*
D10*
%TO.C,R14*%
G36*
X82090680Y-99326384D02*
G01*
X82118588Y-99330524D01*
X82145957Y-99337380D01*
X82172521Y-99346885D01*
X82198027Y-99358948D01*
X82222226Y-99373452D01*
X82244888Y-99390259D01*
X82265793Y-99409207D01*
X82284741Y-99430112D01*
X82301548Y-99452774D01*
X82316052Y-99476973D01*
X82328115Y-99502479D01*
X82337620Y-99529043D01*
X82344476Y-99556412D01*
X82348616Y-99584320D01*
X82350000Y-99612500D01*
X82350000Y-100187500D01*
X82348616Y-100215680D01*
X82344476Y-100243588D01*
X82337620Y-100270957D01*
X82328115Y-100297521D01*
X82316052Y-100323027D01*
X82301548Y-100347226D01*
X82284741Y-100369888D01*
X82265793Y-100390793D01*
X82244888Y-100409741D01*
X82222226Y-100426548D01*
X82198027Y-100441052D01*
X82172521Y-100453115D01*
X82145957Y-100462620D01*
X82118588Y-100469476D01*
X82090680Y-100473616D01*
X82062500Y-100475000D01*
X81387500Y-100475000D01*
X81359320Y-100473616D01*
X81331412Y-100469476D01*
X81304043Y-100462620D01*
X81277479Y-100453115D01*
X81251973Y-100441052D01*
X81227774Y-100426548D01*
X81205112Y-100409741D01*
X81184207Y-100390793D01*
X81165259Y-100369888D01*
X81148452Y-100347226D01*
X81133948Y-100323027D01*
X81121885Y-100297521D01*
X81112380Y-100270957D01*
X81105524Y-100243588D01*
X81101384Y-100215680D01*
X81100000Y-100187500D01*
X81100000Y-99612500D01*
X81101384Y-99584320D01*
X81105524Y-99556412D01*
X81112380Y-99529043D01*
X81121885Y-99502479D01*
X81133948Y-99476973D01*
X81148452Y-99452774D01*
X81165259Y-99430112D01*
X81184207Y-99409207D01*
X81205112Y-99390259D01*
X81227774Y-99373452D01*
X81251973Y-99358948D01*
X81277479Y-99346885D01*
X81304043Y-99337380D01*
X81331412Y-99330524D01*
X81359320Y-99326384D01*
X81387500Y-99325000D01*
X82062500Y-99325000D01*
X82090680Y-99326384D01*
G37*
G36*
X83840680Y-99326384D02*
G01*
X83868588Y-99330524D01*
X83895957Y-99337380D01*
X83922521Y-99346885D01*
X83948027Y-99358948D01*
X83972226Y-99373452D01*
X83994888Y-99390259D01*
X84015793Y-99409207D01*
X84034741Y-99430112D01*
X84051548Y-99452774D01*
X84066052Y-99476973D01*
X84078115Y-99502479D01*
X84087620Y-99529043D01*
X84094476Y-99556412D01*
X84098616Y-99584320D01*
X84100000Y-99612500D01*
X84100000Y-100187500D01*
X84098616Y-100215680D01*
X84094476Y-100243588D01*
X84087620Y-100270957D01*
X84078115Y-100297521D01*
X84066052Y-100323027D01*
X84051548Y-100347226D01*
X84034741Y-100369888D01*
X84015793Y-100390793D01*
X83994888Y-100409741D01*
X83972226Y-100426548D01*
X83948027Y-100441052D01*
X83922521Y-100453115D01*
X83895957Y-100462620D01*
X83868588Y-100469476D01*
X83840680Y-100473616D01*
X83812500Y-100475000D01*
X83137500Y-100475000D01*
X83109320Y-100473616D01*
X83081412Y-100469476D01*
X83054043Y-100462620D01*
X83027479Y-100453115D01*
X83001973Y-100441052D01*
X82977774Y-100426548D01*
X82955112Y-100409741D01*
X82934207Y-100390793D01*
X82915259Y-100369888D01*
X82898452Y-100347226D01*
X82883948Y-100323027D01*
X82871885Y-100297521D01*
X82862380Y-100270957D01*
X82855524Y-100243588D01*
X82851384Y-100215680D01*
X82850000Y-100187500D01*
X82850000Y-99612500D01*
X82851384Y-99584320D01*
X82855524Y-99556412D01*
X82862380Y-99529043D01*
X82871885Y-99502479D01*
X82883948Y-99476973D01*
X82898452Y-99452774D01*
X82915259Y-99430112D01*
X82934207Y-99409207D01*
X82955112Y-99390259D01*
X82977774Y-99373452D01*
X83001973Y-99358948D01*
X83027479Y-99346885D01*
X83054043Y-99337380D01*
X83081412Y-99330524D01*
X83109320Y-99326384D01*
X83137500Y-99325000D01*
X83812500Y-99325000D01*
X83840680Y-99326384D01*
G37*
%TD*%
%TO.C,R13*%
G36*
X88190680Y-99026384D02*
G01*
X88218588Y-99030524D01*
X88245957Y-99037380D01*
X88272521Y-99046885D01*
X88298027Y-99058948D01*
X88322226Y-99073452D01*
X88344888Y-99090259D01*
X88365793Y-99109207D01*
X88384741Y-99130112D01*
X88401548Y-99152774D01*
X88416052Y-99176973D01*
X88428115Y-99202479D01*
X88437620Y-99229043D01*
X88444476Y-99256412D01*
X88448616Y-99284320D01*
X88450000Y-99312500D01*
X88450000Y-99887500D01*
X88448616Y-99915680D01*
X88444476Y-99943588D01*
X88437620Y-99970957D01*
X88428115Y-99997521D01*
X88416052Y-100023027D01*
X88401548Y-100047226D01*
X88384741Y-100069888D01*
X88365793Y-100090793D01*
X88344888Y-100109741D01*
X88322226Y-100126548D01*
X88298027Y-100141052D01*
X88272521Y-100153115D01*
X88245957Y-100162620D01*
X88218588Y-100169476D01*
X88190680Y-100173616D01*
X88162500Y-100175000D01*
X87487500Y-100175000D01*
X87459320Y-100173616D01*
X87431412Y-100169476D01*
X87404043Y-100162620D01*
X87377479Y-100153115D01*
X87351973Y-100141052D01*
X87327774Y-100126548D01*
X87305112Y-100109741D01*
X87284207Y-100090793D01*
X87265259Y-100069888D01*
X87248452Y-100047226D01*
X87233948Y-100023027D01*
X87221885Y-99997521D01*
X87212380Y-99970957D01*
X87205524Y-99943588D01*
X87201384Y-99915680D01*
X87200000Y-99887500D01*
X87200000Y-99312500D01*
X87201384Y-99284320D01*
X87205524Y-99256412D01*
X87212380Y-99229043D01*
X87221885Y-99202479D01*
X87233948Y-99176973D01*
X87248452Y-99152774D01*
X87265259Y-99130112D01*
X87284207Y-99109207D01*
X87305112Y-99090259D01*
X87327774Y-99073452D01*
X87351973Y-99058948D01*
X87377479Y-99046885D01*
X87404043Y-99037380D01*
X87431412Y-99030524D01*
X87459320Y-99026384D01*
X87487500Y-99025000D01*
X88162500Y-99025000D01*
X88190680Y-99026384D01*
G37*
G36*
X89940680Y-99026384D02*
G01*
X89968588Y-99030524D01*
X89995957Y-99037380D01*
X90022521Y-99046885D01*
X90048027Y-99058948D01*
X90072226Y-99073452D01*
X90094888Y-99090259D01*
X90115793Y-99109207D01*
X90134741Y-99130112D01*
X90151548Y-99152774D01*
X90166052Y-99176973D01*
X90178115Y-99202479D01*
X90187620Y-99229043D01*
X90194476Y-99256412D01*
X90198616Y-99284320D01*
X90200000Y-99312500D01*
X90200000Y-99887500D01*
X90198616Y-99915680D01*
X90194476Y-99943588D01*
X90187620Y-99970957D01*
X90178115Y-99997521D01*
X90166052Y-100023027D01*
X90151548Y-100047226D01*
X90134741Y-100069888D01*
X90115793Y-100090793D01*
X90094888Y-100109741D01*
X90072226Y-100126548D01*
X90048027Y-100141052D01*
X90022521Y-100153115D01*
X89995957Y-100162620D01*
X89968588Y-100169476D01*
X89940680Y-100173616D01*
X89912500Y-100175000D01*
X89237500Y-100175000D01*
X89209320Y-100173616D01*
X89181412Y-100169476D01*
X89154043Y-100162620D01*
X89127479Y-100153115D01*
X89101973Y-100141052D01*
X89077774Y-100126548D01*
X89055112Y-100109741D01*
X89034207Y-100090793D01*
X89015259Y-100069888D01*
X88998452Y-100047226D01*
X88983948Y-100023027D01*
X88971885Y-99997521D01*
X88962380Y-99970957D01*
X88955524Y-99943588D01*
X88951384Y-99915680D01*
X88950000Y-99887500D01*
X88950000Y-99312500D01*
X88951384Y-99284320D01*
X88955524Y-99256412D01*
X88962380Y-99229043D01*
X88971885Y-99202479D01*
X88983948Y-99176973D01*
X88998452Y-99152774D01*
X89015259Y-99130112D01*
X89034207Y-99109207D01*
X89055112Y-99090259D01*
X89077774Y-99073452D01*
X89101973Y-99058948D01*
X89127479Y-99046885D01*
X89154043Y-99037380D01*
X89181412Y-99030524D01*
X89209320Y-99026384D01*
X89237500Y-99025000D01*
X89912500Y-99025000D01*
X89940680Y-99026384D01*
G37*
%TD*%
%TO.C,R12*%
G36*
X103115680Y-81001384D02*
G01*
X103143588Y-81005524D01*
X103170957Y-81012380D01*
X103197521Y-81021885D01*
X103223027Y-81033948D01*
X103247226Y-81048452D01*
X103269888Y-81065259D01*
X103290793Y-81084207D01*
X103309741Y-81105112D01*
X103326548Y-81127774D01*
X103341052Y-81151973D01*
X103353115Y-81177479D01*
X103362620Y-81204043D01*
X103369476Y-81231412D01*
X103373616Y-81259320D01*
X103375000Y-81287500D01*
X103375000Y-81962500D01*
X103373616Y-81990680D01*
X103369476Y-82018588D01*
X103362620Y-82045957D01*
X103353115Y-82072521D01*
X103341052Y-82098027D01*
X103326548Y-82122226D01*
X103309741Y-82144888D01*
X103290793Y-82165793D01*
X103269888Y-82184741D01*
X103247226Y-82201548D01*
X103223027Y-82216052D01*
X103197521Y-82228115D01*
X103170957Y-82237620D01*
X103143588Y-82244476D01*
X103115680Y-82248616D01*
X103087500Y-82250000D01*
X102512500Y-82250000D01*
X102484320Y-82248616D01*
X102456412Y-82244476D01*
X102429043Y-82237620D01*
X102402479Y-82228115D01*
X102376973Y-82216052D01*
X102352774Y-82201548D01*
X102330112Y-82184741D01*
X102309207Y-82165793D01*
X102290259Y-82144888D01*
X102273452Y-82122226D01*
X102258948Y-82098027D01*
X102246885Y-82072521D01*
X102237380Y-82045957D01*
X102230524Y-82018588D01*
X102226384Y-81990680D01*
X102225000Y-81962500D01*
X102225000Y-81287500D01*
X102226384Y-81259320D01*
X102230524Y-81231412D01*
X102237380Y-81204043D01*
X102246885Y-81177479D01*
X102258948Y-81151973D01*
X102273452Y-81127774D01*
X102290259Y-81105112D01*
X102309207Y-81084207D01*
X102330112Y-81065259D01*
X102352774Y-81048452D01*
X102376973Y-81033948D01*
X102402479Y-81021885D01*
X102429043Y-81012380D01*
X102456412Y-81005524D01*
X102484320Y-81001384D01*
X102512500Y-81000000D01*
X103087500Y-81000000D01*
X103115680Y-81001384D01*
G37*
G36*
X103115680Y-82751384D02*
G01*
X103143588Y-82755524D01*
X103170957Y-82762380D01*
X103197521Y-82771885D01*
X103223027Y-82783948D01*
X103247226Y-82798452D01*
X103269888Y-82815259D01*
X103290793Y-82834207D01*
X103309741Y-82855112D01*
X103326548Y-82877774D01*
X103341052Y-82901973D01*
X103353115Y-82927479D01*
X103362620Y-82954043D01*
X103369476Y-82981412D01*
X103373616Y-83009320D01*
X103375000Y-83037500D01*
X103375000Y-83712500D01*
X103373616Y-83740680D01*
X103369476Y-83768588D01*
X103362620Y-83795957D01*
X103353115Y-83822521D01*
X103341052Y-83848027D01*
X103326548Y-83872226D01*
X103309741Y-83894888D01*
X103290793Y-83915793D01*
X103269888Y-83934741D01*
X103247226Y-83951548D01*
X103223027Y-83966052D01*
X103197521Y-83978115D01*
X103170957Y-83987620D01*
X103143588Y-83994476D01*
X103115680Y-83998616D01*
X103087500Y-84000000D01*
X102512500Y-84000000D01*
X102484320Y-83998616D01*
X102456412Y-83994476D01*
X102429043Y-83987620D01*
X102402479Y-83978115D01*
X102376973Y-83966052D01*
X102352774Y-83951548D01*
X102330112Y-83934741D01*
X102309207Y-83915793D01*
X102290259Y-83894888D01*
X102273452Y-83872226D01*
X102258948Y-83848027D01*
X102246885Y-83822521D01*
X102237380Y-83795957D01*
X102230524Y-83768588D01*
X102226384Y-83740680D01*
X102225000Y-83712500D01*
X102225000Y-83037500D01*
X102226384Y-83009320D01*
X102230524Y-82981412D01*
X102237380Y-82954043D01*
X102246885Y-82927479D01*
X102258948Y-82901973D01*
X102273452Y-82877774D01*
X102290259Y-82855112D01*
X102309207Y-82834207D01*
X102330112Y-82815259D01*
X102352774Y-82798452D01*
X102376973Y-82783948D01*
X102402479Y-82771885D01*
X102429043Y-82762380D01*
X102456412Y-82755524D01*
X102484320Y-82751384D01*
X102512500Y-82750000D01*
X103087500Y-82750000D01*
X103115680Y-82751384D01*
G37*
%TD*%
%TO.C,R10*%
G36*
X90140680Y-92826384D02*
G01*
X90168588Y-92830524D01*
X90195957Y-92837380D01*
X90222521Y-92846885D01*
X90248027Y-92858948D01*
X90272226Y-92873452D01*
X90294888Y-92890259D01*
X90315793Y-92909207D01*
X90334741Y-92930112D01*
X90351548Y-92952774D01*
X90366052Y-92976973D01*
X90378115Y-93002479D01*
X90387620Y-93029043D01*
X90394476Y-93056412D01*
X90398616Y-93084320D01*
X90400000Y-93112500D01*
X90400000Y-93687500D01*
X90398616Y-93715680D01*
X90394476Y-93743588D01*
X90387620Y-93770957D01*
X90378115Y-93797521D01*
X90366052Y-93823027D01*
X90351548Y-93847226D01*
X90334741Y-93869888D01*
X90315793Y-93890793D01*
X90294888Y-93909741D01*
X90272226Y-93926548D01*
X90248027Y-93941052D01*
X90222521Y-93953115D01*
X90195957Y-93962620D01*
X90168588Y-93969476D01*
X90140680Y-93973616D01*
X90112500Y-93975000D01*
X89437500Y-93975000D01*
X89409320Y-93973616D01*
X89381412Y-93969476D01*
X89354043Y-93962620D01*
X89327479Y-93953115D01*
X89301973Y-93941052D01*
X89277774Y-93926548D01*
X89255112Y-93909741D01*
X89234207Y-93890793D01*
X89215259Y-93869888D01*
X89198452Y-93847226D01*
X89183948Y-93823027D01*
X89171885Y-93797521D01*
X89162380Y-93770957D01*
X89155524Y-93743588D01*
X89151384Y-93715680D01*
X89150000Y-93687500D01*
X89150000Y-93112500D01*
X89151384Y-93084320D01*
X89155524Y-93056412D01*
X89162380Y-93029043D01*
X89171885Y-93002479D01*
X89183948Y-92976973D01*
X89198452Y-92952774D01*
X89215259Y-92930112D01*
X89234207Y-92909207D01*
X89255112Y-92890259D01*
X89277774Y-92873452D01*
X89301973Y-92858948D01*
X89327479Y-92846885D01*
X89354043Y-92837380D01*
X89381412Y-92830524D01*
X89409320Y-92826384D01*
X89437500Y-92825000D01*
X90112500Y-92825000D01*
X90140680Y-92826384D01*
G37*
G36*
X88390680Y-92826384D02*
G01*
X88418588Y-92830524D01*
X88445957Y-92837380D01*
X88472521Y-92846885D01*
X88498027Y-92858948D01*
X88522226Y-92873452D01*
X88544888Y-92890259D01*
X88565793Y-92909207D01*
X88584741Y-92930112D01*
X88601548Y-92952774D01*
X88616052Y-92976973D01*
X88628115Y-93002479D01*
X88637620Y-93029043D01*
X88644476Y-93056412D01*
X88648616Y-93084320D01*
X88650000Y-93112500D01*
X88650000Y-93687500D01*
X88648616Y-93715680D01*
X88644476Y-93743588D01*
X88637620Y-93770957D01*
X88628115Y-93797521D01*
X88616052Y-93823027D01*
X88601548Y-93847226D01*
X88584741Y-93869888D01*
X88565793Y-93890793D01*
X88544888Y-93909741D01*
X88522226Y-93926548D01*
X88498027Y-93941052D01*
X88472521Y-93953115D01*
X88445957Y-93962620D01*
X88418588Y-93969476D01*
X88390680Y-93973616D01*
X88362500Y-93975000D01*
X87687500Y-93975000D01*
X87659320Y-93973616D01*
X87631412Y-93969476D01*
X87604043Y-93962620D01*
X87577479Y-93953115D01*
X87551973Y-93941052D01*
X87527774Y-93926548D01*
X87505112Y-93909741D01*
X87484207Y-93890793D01*
X87465259Y-93869888D01*
X87448452Y-93847226D01*
X87433948Y-93823027D01*
X87421885Y-93797521D01*
X87412380Y-93770957D01*
X87405524Y-93743588D01*
X87401384Y-93715680D01*
X87400000Y-93687500D01*
X87400000Y-93112500D01*
X87401384Y-93084320D01*
X87405524Y-93056412D01*
X87412380Y-93029043D01*
X87421885Y-93002479D01*
X87433948Y-92976973D01*
X87448452Y-92952774D01*
X87465259Y-92930112D01*
X87484207Y-92909207D01*
X87505112Y-92890259D01*
X87527774Y-92873452D01*
X87551973Y-92858948D01*
X87577479Y-92846885D01*
X87604043Y-92837380D01*
X87631412Y-92830524D01*
X87659320Y-92826384D01*
X87687500Y-92825000D01*
X88362500Y-92825000D01*
X88390680Y-92826384D01*
G37*
%TD*%
D11*
%TO.C,J4*%
X85700000Y-93730000D03*
D12*
X85700000Y-95000000D03*
%TD*%
D13*
%TO.C,J7*%
X132610000Y-108350000D03*
D10*
G36*
X128461955Y-106451324D02*
G01*
X128488650Y-106455284D01*
X128514828Y-106461841D01*
X128540238Y-106470933D01*
X128564634Y-106482472D01*
X128587782Y-106496346D01*
X128609458Y-106512422D01*
X128629454Y-106530546D01*
X128647578Y-106550542D01*
X128663654Y-106572218D01*
X128677528Y-106595366D01*
X128689067Y-106619762D01*
X128698159Y-106645172D01*
X128704716Y-106671350D01*
X128708676Y-106698045D01*
X128710000Y-106725000D01*
X128710000Y-109975000D01*
X128708676Y-110001955D01*
X128704716Y-110028650D01*
X128698159Y-110054828D01*
X128689067Y-110080238D01*
X128677528Y-110104634D01*
X128663654Y-110127782D01*
X128647578Y-110149458D01*
X128629454Y-110169454D01*
X128609458Y-110187578D01*
X128587782Y-110203654D01*
X128564634Y-110217528D01*
X128540238Y-110229067D01*
X128514828Y-110238159D01*
X128488650Y-110244716D01*
X128461955Y-110248676D01*
X128435000Y-110250000D01*
X126785000Y-110250000D01*
X126758045Y-110248676D01*
X126731350Y-110244716D01*
X126705172Y-110238159D01*
X126679762Y-110229067D01*
X126655366Y-110217528D01*
X126632218Y-110203654D01*
X126610542Y-110187578D01*
X126590546Y-110169454D01*
X126572422Y-110149458D01*
X126556346Y-110127782D01*
X126542472Y-110104634D01*
X126530933Y-110080238D01*
X126521841Y-110054828D01*
X126515284Y-110028650D01*
X126511324Y-110001955D01*
X126510000Y-109975000D01*
X126510000Y-106725000D01*
X126511324Y-106698045D01*
X126515284Y-106671350D01*
X126521841Y-106645172D01*
X126530933Y-106619762D01*
X126542472Y-106595366D01*
X126556346Y-106572218D01*
X126572422Y-106550542D01*
X126590546Y-106530546D01*
X126610542Y-106512422D01*
X126632218Y-106496346D01*
X126655366Y-106482472D01*
X126679762Y-106470933D01*
X126705172Y-106461841D01*
X126731350Y-106455284D01*
X126758045Y-106451324D01*
X126785000Y-106450000D01*
X128435000Y-106450000D01*
X128461955Y-106451324D01*
G37*
%TD*%
D14*
%TO.C,SW1*%
X121500000Y-112600000D03*
X111300000Y-112600000D03*
D15*
X120400000Y-108850000D03*
X118400000Y-108850000D03*
X114400000Y-108850000D03*
X112400000Y-108850000D03*
%TD*%
D10*
%TO.C,D4*%
G36*
X102150000Y-93274075D02*
G01*
X102150000Y-97125925D01*
X97650000Y-96079413D01*
X97650000Y-94320587D01*
X102150000Y-93274075D01*
G37*
G36*
X91250000Y-97125925D02*
G01*
X91250000Y-93274075D01*
X95750000Y-94320587D01*
X95750000Y-96079413D01*
X91250000Y-97125925D01*
G37*
%TD*%
%TO.C,JP4*%
G36*
X119818886Y-106499398D02*
G01*
X119800466Y-106499398D01*
X119790663Y-106498916D01*
X119741832Y-106494106D01*
X119732127Y-106492667D01*
X119684002Y-106483095D01*
X119674481Y-106480710D01*
X119627526Y-106466466D01*
X119618288Y-106463160D01*
X119572955Y-106444383D01*
X119564081Y-106440186D01*
X119520808Y-106417055D01*
X119512393Y-106412012D01*
X119471594Y-106384752D01*
X119463710Y-106378905D01*
X119425781Y-106347777D01*
X119418510Y-106341187D01*
X119383813Y-106306490D01*
X119377223Y-106299219D01*
X119346095Y-106261290D01*
X119340248Y-106253406D01*
X119312988Y-106212607D01*
X119307945Y-106204192D01*
X119284814Y-106160919D01*
X119280617Y-106152045D01*
X119261840Y-106106712D01*
X119258534Y-106097474D01*
X119244290Y-106050519D01*
X119241905Y-106040998D01*
X119232333Y-105992873D01*
X119230894Y-105983168D01*
X119226084Y-105934337D01*
X119225602Y-105924534D01*
X119225602Y-105906114D01*
X119225000Y-105900000D01*
X119225000Y-105400000D01*
X119225602Y-105393886D01*
X119225602Y-105375466D01*
X119226084Y-105365663D01*
X119230894Y-105316832D01*
X119232333Y-105307127D01*
X119241905Y-105259002D01*
X119244290Y-105249481D01*
X119258534Y-105202526D01*
X119261840Y-105193288D01*
X119280617Y-105147955D01*
X119284814Y-105139081D01*
X119307945Y-105095808D01*
X119312988Y-105087393D01*
X119340248Y-105046594D01*
X119346095Y-105038710D01*
X119377223Y-105000781D01*
X119383813Y-104993510D01*
X119418510Y-104958813D01*
X119425781Y-104952223D01*
X119463710Y-104921095D01*
X119471594Y-104915248D01*
X119512393Y-104887988D01*
X119520808Y-104882945D01*
X119564081Y-104859814D01*
X119572955Y-104855617D01*
X119618288Y-104836840D01*
X119627526Y-104833534D01*
X119674481Y-104819290D01*
X119684002Y-104816905D01*
X119732127Y-104807333D01*
X119741832Y-104805894D01*
X119790663Y-104801084D01*
X119800466Y-104800602D01*
X119818886Y-104800602D01*
X119825000Y-104800000D01*
X120325000Y-104800000D01*
X120344509Y-104801921D01*
X120363268Y-104807612D01*
X120380557Y-104816853D01*
X120395711Y-104829289D01*
X120408147Y-104844443D01*
X120417388Y-104861732D01*
X120423079Y-104880491D01*
X120425000Y-104900000D01*
X120425000Y-106400000D01*
X120423079Y-106419509D01*
X120417388Y-106438268D01*
X120408147Y-106455557D01*
X120395711Y-106470711D01*
X120380557Y-106483147D01*
X120363268Y-106492388D01*
X120344509Y-106498079D01*
X120325000Y-106500000D01*
X119825000Y-106500000D01*
X119818886Y-106499398D01*
G37*
G36*
X120605491Y-106498079D02*
G01*
X120586732Y-106492388D01*
X120569443Y-106483147D01*
X120554289Y-106470711D01*
X120541853Y-106455557D01*
X120532612Y-106438268D01*
X120526921Y-106419509D01*
X120525000Y-106400000D01*
X120525000Y-104900000D01*
X120526921Y-104880491D01*
X120532612Y-104861732D01*
X120541853Y-104844443D01*
X120554289Y-104829289D01*
X120569443Y-104816853D01*
X120586732Y-104807612D01*
X120605491Y-104801921D01*
X120625000Y-104800000D01*
X121125000Y-104800000D01*
X121131114Y-104800602D01*
X121149534Y-104800602D01*
X121159337Y-104801084D01*
X121208168Y-104805894D01*
X121217873Y-104807333D01*
X121265998Y-104816905D01*
X121275519Y-104819290D01*
X121322474Y-104833534D01*
X121331712Y-104836840D01*
X121377045Y-104855617D01*
X121385919Y-104859814D01*
X121429192Y-104882945D01*
X121437607Y-104887988D01*
X121478406Y-104915248D01*
X121486290Y-104921095D01*
X121524219Y-104952223D01*
X121531490Y-104958813D01*
X121566187Y-104993510D01*
X121572777Y-105000781D01*
X121603905Y-105038710D01*
X121609752Y-105046594D01*
X121637012Y-105087393D01*
X121642055Y-105095808D01*
X121665186Y-105139081D01*
X121669383Y-105147955D01*
X121688160Y-105193288D01*
X121691466Y-105202526D01*
X121705710Y-105249481D01*
X121708095Y-105259002D01*
X121717667Y-105307127D01*
X121719106Y-105316832D01*
X121723916Y-105365663D01*
X121724398Y-105375466D01*
X121724398Y-105393886D01*
X121725000Y-105400000D01*
X121725000Y-105900000D01*
X121724398Y-105906114D01*
X121724398Y-105924534D01*
X121723916Y-105934337D01*
X121719106Y-105983168D01*
X121717667Y-105992873D01*
X121708095Y-106040998D01*
X121705710Y-106050519D01*
X121691466Y-106097474D01*
X121688160Y-106106712D01*
X121669383Y-106152045D01*
X121665186Y-106160919D01*
X121642055Y-106204192D01*
X121637012Y-106212607D01*
X121609752Y-106253406D01*
X121603905Y-106261290D01*
X121572777Y-106299219D01*
X121566187Y-106306490D01*
X121531490Y-106341187D01*
X121524219Y-106347777D01*
X121486290Y-106378905D01*
X121478406Y-106384752D01*
X121437607Y-106412012D01*
X121429192Y-106417055D01*
X121385919Y-106440186D01*
X121377045Y-106444383D01*
X121331712Y-106463160D01*
X121322474Y-106466466D01*
X121275519Y-106480710D01*
X121265998Y-106483095D01*
X121217873Y-106492667D01*
X121208168Y-106494106D01*
X121159337Y-106498916D01*
X121149534Y-106499398D01*
X121131114Y-106499398D01*
X121125000Y-106500000D01*
X120625000Y-106500000D01*
X120605491Y-106498079D01*
G37*
%TD*%
D16*
%TO.C,J3*%
X132720000Y-63000000D03*
X130180000Y-63000000D03*
X127640000Y-63000000D03*
X99700000Y-65540000D03*
X107320000Y-65540000D03*
X120020000Y-63000000D03*
X104780000Y-63000000D03*
X109860000Y-63000000D03*
X127640000Y-65540000D03*
X89540000Y-65540000D03*
X135260000Y-65540000D03*
X117480000Y-65540000D03*
X99700000Y-63000000D03*
X89540000Y-63000000D03*
X94620000Y-63000000D03*
X102240000Y-63000000D03*
X92080000Y-65540000D03*
X135260000Y-63000000D03*
X104780000Y-65540000D03*
X122560000Y-65540000D03*
X97160000Y-63000000D03*
X114940000Y-65540000D03*
X122560000Y-63000000D03*
X92080000Y-63000000D03*
X112400000Y-63000000D03*
X97160000Y-65540000D03*
X112400000Y-65540000D03*
X107320000Y-63000000D03*
X130180000Y-65540000D03*
X125100000Y-65540000D03*
X117480000Y-63000000D03*
X125100000Y-63000000D03*
D17*
X87000000Y-65540000D03*
D16*
X132720000Y-65540000D03*
X109860000Y-65540000D03*
X114940000Y-63000000D03*
X94620000Y-65540000D03*
X102240000Y-65540000D03*
X120020000Y-65540000D03*
X87000000Y-63000000D03*
D18*
X82130000Y-113270000D03*
X140130000Y-113270000D03*
X140130000Y-64270000D03*
X82130000Y-64270000D03*
%TD*%
D10*
%TO.C,JP3*%
G36*
X100548079Y-69159509D02*
G01*
X100542388Y-69178268D01*
X100533147Y-69195557D01*
X100520711Y-69210711D01*
X100505557Y-69223147D01*
X100488268Y-69232388D01*
X100469509Y-69238079D01*
X100450000Y-69240000D01*
X98950000Y-69240000D01*
X98930491Y-69238079D01*
X98911732Y-69232388D01*
X98894443Y-69223147D01*
X98879289Y-69210711D01*
X98866853Y-69195557D01*
X98857612Y-69178268D01*
X98851921Y-69159509D01*
X98850000Y-69140000D01*
X98850000Y-68640000D01*
X98850602Y-68633886D01*
X98850602Y-68615466D01*
X98851084Y-68605663D01*
X98855894Y-68556832D01*
X98857333Y-68547127D01*
X98866905Y-68499002D01*
X98869290Y-68489481D01*
X98883534Y-68442526D01*
X98886840Y-68433288D01*
X98905617Y-68387955D01*
X98909814Y-68379081D01*
X98932945Y-68335808D01*
X98937988Y-68327393D01*
X98965248Y-68286594D01*
X98971095Y-68278710D01*
X99002223Y-68240781D01*
X99008813Y-68233510D01*
X99043510Y-68198813D01*
X99050781Y-68192223D01*
X99088710Y-68161095D01*
X99096594Y-68155248D01*
X99137393Y-68127988D01*
X99145808Y-68122945D01*
X99189081Y-68099814D01*
X99197955Y-68095617D01*
X99243288Y-68076840D01*
X99252526Y-68073534D01*
X99299481Y-68059290D01*
X99309002Y-68056905D01*
X99357127Y-68047333D01*
X99366832Y-68045894D01*
X99415663Y-68041084D01*
X99425466Y-68040602D01*
X99443886Y-68040602D01*
X99450000Y-68040000D01*
X99950000Y-68040000D01*
X99956114Y-68040602D01*
X99974534Y-68040602D01*
X99984337Y-68041084D01*
X100033168Y-68045894D01*
X100042873Y-68047333D01*
X100090998Y-68056905D01*
X100100519Y-68059290D01*
X100147474Y-68073534D01*
X100156712Y-68076840D01*
X100202045Y-68095617D01*
X100210919Y-68099814D01*
X100254192Y-68122945D01*
X100262607Y-68127988D01*
X100303406Y-68155248D01*
X100311290Y-68161095D01*
X100349219Y-68192223D01*
X100356490Y-68198813D01*
X100391187Y-68233510D01*
X100397777Y-68240781D01*
X100428905Y-68278710D01*
X100434752Y-68286594D01*
X100462012Y-68327393D01*
X100467055Y-68335808D01*
X100490186Y-68379081D01*
X100494383Y-68387955D01*
X100513160Y-68433288D01*
X100516466Y-68442526D01*
X100530710Y-68489481D01*
X100533095Y-68499002D01*
X100542667Y-68547127D01*
X100544106Y-68556832D01*
X100548916Y-68605663D01*
X100549398Y-68615466D01*
X100549398Y-68633886D01*
X100550000Y-68640000D01*
X100550000Y-69140000D01*
X100548079Y-69159509D01*
G37*
G36*
X100549398Y-69946114D02*
G01*
X100549398Y-69964534D01*
X100548916Y-69974337D01*
X100544106Y-70023168D01*
X100542667Y-70032873D01*
X100533095Y-70080998D01*
X100530710Y-70090519D01*
X100516466Y-70137474D01*
X100513160Y-70146712D01*
X100494383Y-70192045D01*
X100490186Y-70200919D01*
X100467055Y-70244192D01*
X100462012Y-70252607D01*
X100434752Y-70293406D01*
X100428905Y-70301290D01*
X100397777Y-70339219D01*
X100391187Y-70346490D01*
X100356490Y-70381187D01*
X100349219Y-70387777D01*
X100311290Y-70418905D01*
X100303406Y-70424752D01*
X100262607Y-70452012D01*
X100254192Y-70457055D01*
X100210919Y-70480186D01*
X100202045Y-70484383D01*
X100156712Y-70503160D01*
X100147474Y-70506466D01*
X100100519Y-70520710D01*
X100090998Y-70523095D01*
X100042873Y-70532667D01*
X100033168Y-70534106D01*
X99984337Y-70538916D01*
X99974534Y-70539398D01*
X99956114Y-70539398D01*
X99950000Y-70540000D01*
X99450000Y-70540000D01*
X99443886Y-70539398D01*
X99425466Y-70539398D01*
X99415663Y-70538916D01*
X99366832Y-70534106D01*
X99357127Y-70532667D01*
X99309002Y-70523095D01*
X99299481Y-70520710D01*
X99252526Y-70506466D01*
X99243288Y-70503160D01*
X99197955Y-70484383D01*
X99189081Y-70480186D01*
X99145808Y-70457055D01*
X99137393Y-70452012D01*
X99096594Y-70424752D01*
X99088710Y-70418905D01*
X99050781Y-70387777D01*
X99043510Y-70381187D01*
X99008813Y-70346490D01*
X99002223Y-70339219D01*
X98971095Y-70301290D01*
X98965248Y-70293406D01*
X98937988Y-70252607D01*
X98932945Y-70244192D01*
X98909814Y-70200919D01*
X98905617Y-70192045D01*
X98886840Y-70146712D01*
X98883534Y-70137474D01*
X98869290Y-70090519D01*
X98866905Y-70080998D01*
X98857333Y-70032873D01*
X98855894Y-70023168D01*
X98851084Y-69974337D01*
X98850602Y-69964534D01*
X98850602Y-69946114D01*
X98850000Y-69940000D01*
X98850000Y-69440000D01*
X98851921Y-69420491D01*
X98857612Y-69401732D01*
X98866853Y-69384443D01*
X98879289Y-69369289D01*
X98894443Y-69356853D01*
X98911732Y-69347612D01*
X98930491Y-69341921D01*
X98950000Y-69340000D01*
X100450000Y-69340000D01*
X100469509Y-69341921D01*
X100488268Y-69347612D01*
X100505557Y-69356853D01*
X100520711Y-69369289D01*
X100533147Y-69384443D01*
X100542388Y-69401732D01*
X100548079Y-69420491D01*
X100550000Y-69440000D01*
X100550000Y-69940000D01*
X100549398Y-69946114D01*
G37*
%TD*%
D19*
%TO.C,J5*%
X95840000Y-109850000D03*
X98340000Y-104850000D03*
D20*
X100840000Y-109850000D03*
%TD*%
D10*
%TO.C,R9*%
G36*
X90685680Y-71511384D02*
G01*
X90713588Y-71515524D01*
X90740957Y-71522380D01*
X90767521Y-71531885D01*
X90793027Y-71543948D01*
X90817226Y-71558452D01*
X90839888Y-71575259D01*
X90860793Y-71594207D01*
X90879741Y-71615112D01*
X90896548Y-71637774D01*
X90911052Y-71661973D01*
X90923115Y-71687479D01*
X90932620Y-71714043D01*
X90939476Y-71741412D01*
X90943616Y-71769320D01*
X90945000Y-71797500D01*
X90945000Y-72472500D01*
X90943616Y-72500680D01*
X90939476Y-72528588D01*
X90932620Y-72555957D01*
X90923115Y-72582521D01*
X90911052Y-72608027D01*
X90896548Y-72632226D01*
X90879741Y-72654888D01*
X90860793Y-72675793D01*
X90839888Y-72694741D01*
X90817226Y-72711548D01*
X90793027Y-72726052D01*
X90767521Y-72738115D01*
X90740957Y-72747620D01*
X90713588Y-72754476D01*
X90685680Y-72758616D01*
X90657500Y-72760000D01*
X90082500Y-72760000D01*
X90054320Y-72758616D01*
X90026412Y-72754476D01*
X89999043Y-72747620D01*
X89972479Y-72738115D01*
X89946973Y-72726052D01*
X89922774Y-72711548D01*
X89900112Y-72694741D01*
X89879207Y-72675793D01*
X89860259Y-72654888D01*
X89843452Y-72632226D01*
X89828948Y-72608027D01*
X89816885Y-72582521D01*
X89807380Y-72555957D01*
X89800524Y-72528588D01*
X89796384Y-72500680D01*
X89795000Y-72472500D01*
X89795000Y-71797500D01*
X89796384Y-71769320D01*
X89800524Y-71741412D01*
X89807380Y-71714043D01*
X89816885Y-71687479D01*
X89828948Y-71661973D01*
X89843452Y-71637774D01*
X89860259Y-71615112D01*
X89879207Y-71594207D01*
X89900112Y-71575259D01*
X89922774Y-71558452D01*
X89946973Y-71543948D01*
X89972479Y-71531885D01*
X89999043Y-71522380D01*
X90026412Y-71515524D01*
X90054320Y-71511384D01*
X90082500Y-71510000D01*
X90657500Y-71510000D01*
X90685680Y-71511384D01*
G37*
G36*
X90685680Y-73261384D02*
G01*
X90713588Y-73265524D01*
X90740957Y-73272380D01*
X90767521Y-73281885D01*
X90793027Y-73293948D01*
X90817226Y-73308452D01*
X90839888Y-73325259D01*
X90860793Y-73344207D01*
X90879741Y-73365112D01*
X90896548Y-73387774D01*
X90911052Y-73411973D01*
X90923115Y-73437479D01*
X90932620Y-73464043D01*
X90939476Y-73491412D01*
X90943616Y-73519320D01*
X90945000Y-73547500D01*
X90945000Y-74222500D01*
X90943616Y-74250680D01*
X90939476Y-74278588D01*
X90932620Y-74305957D01*
X90923115Y-74332521D01*
X90911052Y-74358027D01*
X90896548Y-74382226D01*
X90879741Y-74404888D01*
X90860793Y-74425793D01*
X90839888Y-74444741D01*
X90817226Y-74461548D01*
X90793027Y-74476052D01*
X90767521Y-74488115D01*
X90740957Y-74497620D01*
X90713588Y-74504476D01*
X90685680Y-74508616D01*
X90657500Y-74510000D01*
X90082500Y-74510000D01*
X90054320Y-74508616D01*
X90026412Y-74504476D01*
X89999043Y-74497620D01*
X89972479Y-74488115D01*
X89946973Y-74476052D01*
X89922774Y-74461548D01*
X89900112Y-74444741D01*
X89879207Y-74425793D01*
X89860259Y-74404888D01*
X89843452Y-74382226D01*
X89828948Y-74358027D01*
X89816885Y-74332521D01*
X89807380Y-74305957D01*
X89800524Y-74278588D01*
X89796384Y-74250680D01*
X89795000Y-74222500D01*
X89795000Y-73547500D01*
X89796384Y-73519320D01*
X89800524Y-73491412D01*
X89807380Y-73464043D01*
X89816885Y-73437479D01*
X89828948Y-73411973D01*
X89843452Y-73387774D01*
X89860259Y-73365112D01*
X89879207Y-73344207D01*
X89900112Y-73325259D01*
X89922774Y-73308452D01*
X89946973Y-73293948D01*
X89972479Y-73281885D01*
X89999043Y-73272380D01*
X90026412Y-73265524D01*
X90054320Y-73261384D01*
X90082500Y-73260000D01*
X90657500Y-73260000D01*
X90685680Y-73261384D01*
G37*
%TD*%
%TO.C,R7*%
G36*
X120240680Y-78426384D02*
G01*
X120268588Y-78430524D01*
X120295957Y-78437380D01*
X120322521Y-78446885D01*
X120348027Y-78458948D01*
X120372226Y-78473452D01*
X120394888Y-78490259D01*
X120415793Y-78509207D01*
X120434741Y-78530112D01*
X120451548Y-78552774D01*
X120466052Y-78576973D01*
X120478115Y-78602479D01*
X120487620Y-78629043D01*
X120494476Y-78656412D01*
X120498616Y-78684320D01*
X120500000Y-78712500D01*
X120500000Y-79287500D01*
X120498616Y-79315680D01*
X120494476Y-79343588D01*
X120487620Y-79370957D01*
X120478115Y-79397521D01*
X120466052Y-79423027D01*
X120451548Y-79447226D01*
X120434741Y-79469888D01*
X120415793Y-79490793D01*
X120394888Y-79509741D01*
X120372226Y-79526548D01*
X120348027Y-79541052D01*
X120322521Y-79553115D01*
X120295957Y-79562620D01*
X120268588Y-79569476D01*
X120240680Y-79573616D01*
X120212500Y-79575000D01*
X119537500Y-79575000D01*
X119509320Y-79573616D01*
X119481412Y-79569476D01*
X119454043Y-79562620D01*
X119427479Y-79553115D01*
X119401973Y-79541052D01*
X119377774Y-79526548D01*
X119355112Y-79509741D01*
X119334207Y-79490793D01*
X119315259Y-79469888D01*
X119298452Y-79447226D01*
X119283948Y-79423027D01*
X119271885Y-79397521D01*
X119262380Y-79370957D01*
X119255524Y-79343588D01*
X119251384Y-79315680D01*
X119250000Y-79287500D01*
X119250000Y-78712500D01*
X119251384Y-78684320D01*
X119255524Y-78656412D01*
X119262380Y-78629043D01*
X119271885Y-78602479D01*
X119283948Y-78576973D01*
X119298452Y-78552774D01*
X119315259Y-78530112D01*
X119334207Y-78509207D01*
X119355112Y-78490259D01*
X119377774Y-78473452D01*
X119401973Y-78458948D01*
X119427479Y-78446885D01*
X119454043Y-78437380D01*
X119481412Y-78430524D01*
X119509320Y-78426384D01*
X119537500Y-78425000D01*
X120212500Y-78425000D01*
X120240680Y-78426384D01*
G37*
G36*
X118490680Y-78426384D02*
G01*
X118518588Y-78430524D01*
X118545957Y-78437380D01*
X118572521Y-78446885D01*
X118598027Y-78458948D01*
X118622226Y-78473452D01*
X118644888Y-78490259D01*
X118665793Y-78509207D01*
X118684741Y-78530112D01*
X118701548Y-78552774D01*
X118716052Y-78576973D01*
X118728115Y-78602479D01*
X118737620Y-78629043D01*
X118744476Y-78656412D01*
X118748616Y-78684320D01*
X118750000Y-78712500D01*
X118750000Y-79287500D01*
X118748616Y-79315680D01*
X118744476Y-79343588D01*
X118737620Y-79370957D01*
X118728115Y-79397521D01*
X118716052Y-79423027D01*
X118701548Y-79447226D01*
X118684741Y-79469888D01*
X118665793Y-79490793D01*
X118644888Y-79509741D01*
X118622226Y-79526548D01*
X118598027Y-79541052D01*
X118572521Y-79553115D01*
X118545957Y-79562620D01*
X118518588Y-79569476D01*
X118490680Y-79573616D01*
X118462500Y-79575000D01*
X117787500Y-79575000D01*
X117759320Y-79573616D01*
X117731412Y-79569476D01*
X117704043Y-79562620D01*
X117677479Y-79553115D01*
X117651973Y-79541052D01*
X117627774Y-79526548D01*
X117605112Y-79509741D01*
X117584207Y-79490793D01*
X117565259Y-79469888D01*
X117548452Y-79447226D01*
X117533948Y-79423027D01*
X117521885Y-79397521D01*
X117512380Y-79370957D01*
X117505524Y-79343588D01*
X117501384Y-79315680D01*
X117500000Y-79287500D01*
X117500000Y-78712500D01*
X117501384Y-78684320D01*
X117505524Y-78656412D01*
X117512380Y-78629043D01*
X117521885Y-78602479D01*
X117533948Y-78576973D01*
X117548452Y-78552774D01*
X117565259Y-78530112D01*
X117584207Y-78509207D01*
X117605112Y-78490259D01*
X117627774Y-78473452D01*
X117651973Y-78458948D01*
X117677479Y-78446885D01*
X117704043Y-78437380D01*
X117731412Y-78430524D01*
X117759320Y-78426384D01*
X117787500Y-78425000D01*
X118462500Y-78425000D01*
X118490680Y-78426384D01*
G37*
%TD*%
D11*
%TO.C,J2*%
X92830000Y-74700000D03*
X92830000Y-73430000D03*
D12*
X92830000Y-72160000D03*
%TD*%
D10*
%TO.C,U4*%
G36*
X82892153Y-103845843D02*
G01*
X82909141Y-103848363D01*
X82925800Y-103852535D01*
X82941970Y-103858321D01*
X82957494Y-103865664D01*
X82972225Y-103874493D01*
X82986019Y-103884723D01*
X82998744Y-103896256D01*
X83010277Y-103908981D01*
X83020507Y-103922775D01*
X83029336Y-103937506D01*
X83036679Y-103953030D01*
X83042465Y-103969200D01*
X83046637Y-103985859D01*
X83049157Y-104002847D01*
X83050000Y-104020000D01*
X83050000Y-105295000D01*
X83049157Y-105312153D01*
X83046637Y-105329141D01*
X83042465Y-105345800D01*
X83036679Y-105361970D01*
X83029336Y-105377494D01*
X83020507Y-105392225D01*
X83010277Y-105406019D01*
X82998744Y-105418744D01*
X82986019Y-105430277D01*
X82972225Y-105440507D01*
X82957494Y-105449336D01*
X82941970Y-105456679D01*
X82925800Y-105462465D01*
X82909141Y-105466637D01*
X82892153Y-105469157D01*
X82875000Y-105470000D01*
X82525000Y-105470000D01*
X82507847Y-105469157D01*
X82490859Y-105466637D01*
X82474200Y-105462465D01*
X82458030Y-105456679D01*
X82442506Y-105449336D01*
X82427775Y-105440507D01*
X82413981Y-105430277D01*
X82401256Y-105418744D01*
X82389723Y-105406019D01*
X82379493Y-105392225D01*
X82370664Y-105377494D01*
X82363321Y-105361970D01*
X82357535Y-105345800D01*
X82353363Y-105329141D01*
X82350843Y-105312153D01*
X82350000Y-105295000D01*
X82350000Y-104020000D01*
X82350843Y-104002847D01*
X82353363Y-103985859D01*
X82357535Y-103969200D01*
X82363321Y-103953030D01*
X82370664Y-103937506D01*
X82379493Y-103922775D01*
X82389723Y-103908981D01*
X82401256Y-103896256D01*
X82413981Y-103884723D01*
X82427775Y-103874493D01*
X82442506Y-103865664D01*
X82458030Y-103858321D01*
X82474200Y-103852535D01*
X82490859Y-103848363D01*
X82507847Y-103845843D01*
X82525000Y-103845000D01*
X82875000Y-103845000D01*
X82892153Y-103845843D01*
G37*
G36*
X81942153Y-103845843D02*
G01*
X81959141Y-103848363D01*
X81975800Y-103852535D01*
X81991970Y-103858321D01*
X82007494Y-103865664D01*
X82022225Y-103874493D01*
X82036019Y-103884723D01*
X82048744Y-103896256D01*
X82060277Y-103908981D01*
X82070507Y-103922775D01*
X82079336Y-103937506D01*
X82086679Y-103953030D01*
X82092465Y-103969200D01*
X82096637Y-103985859D01*
X82099157Y-104002847D01*
X82100000Y-104020000D01*
X82100000Y-105295000D01*
X82099157Y-105312153D01*
X82096637Y-105329141D01*
X82092465Y-105345800D01*
X82086679Y-105361970D01*
X82079336Y-105377494D01*
X82070507Y-105392225D01*
X82060277Y-105406019D01*
X82048744Y-105418744D01*
X82036019Y-105430277D01*
X82022225Y-105440507D01*
X82007494Y-105449336D01*
X81991970Y-105456679D01*
X81975800Y-105462465D01*
X81959141Y-105466637D01*
X81942153Y-105469157D01*
X81925000Y-105470000D01*
X81575000Y-105470000D01*
X81557847Y-105469157D01*
X81540859Y-105466637D01*
X81524200Y-105462465D01*
X81508030Y-105456679D01*
X81492506Y-105449336D01*
X81477775Y-105440507D01*
X81463981Y-105430277D01*
X81451256Y-105418744D01*
X81439723Y-105406019D01*
X81429493Y-105392225D01*
X81420664Y-105377494D01*
X81413321Y-105361970D01*
X81407535Y-105345800D01*
X81403363Y-105329141D01*
X81400843Y-105312153D01*
X81400000Y-105295000D01*
X81400000Y-104020000D01*
X81400843Y-104002847D01*
X81403363Y-103985859D01*
X81407535Y-103969200D01*
X81413321Y-103953030D01*
X81420664Y-103937506D01*
X81429493Y-103922775D01*
X81439723Y-103908981D01*
X81451256Y-103896256D01*
X81463981Y-103884723D01*
X81477775Y-103874493D01*
X81492506Y-103865664D01*
X81508030Y-103858321D01*
X81524200Y-103852535D01*
X81540859Y-103848363D01*
X81557847Y-103845843D01*
X81575000Y-103845000D01*
X81925000Y-103845000D01*
X81942153Y-103845843D01*
G37*
G36*
X80992153Y-103845843D02*
G01*
X81009141Y-103848363D01*
X81025800Y-103852535D01*
X81041970Y-103858321D01*
X81057494Y-103865664D01*
X81072225Y-103874493D01*
X81086019Y-103884723D01*
X81098744Y-103896256D01*
X81110277Y-103908981D01*
X81120507Y-103922775D01*
X81129336Y-103937506D01*
X81136679Y-103953030D01*
X81142465Y-103969200D01*
X81146637Y-103985859D01*
X81149157Y-104002847D01*
X81150000Y-104020000D01*
X81150000Y-105295000D01*
X81149157Y-105312153D01*
X81146637Y-105329141D01*
X81142465Y-105345800D01*
X81136679Y-105361970D01*
X81129336Y-105377494D01*
X81120507Y-105392225D01*
X81110277Y-105406019D01*
X81098744Y-105418744D01*
X81086019Y-105430277D01*
X81072225Y-105440507D01*
X81057494Y-105449336D01*
X81041970Y-105456679D01*
X81025800Y-105462465D01*
X81009141Y-105466637D01*
X80992153Y-105469157D01*
X80975000Y-105470000D01*
X80625000Y-105470000D01*
X80607847Y-105469157D01*
X80590859Y-105466637D01*
X80574200Y-105462465D01*
X80558030Y-105456679D01*
X80542506Y-105449336D01*
X80527775Y-105440507D01*
X80513981Y-105430277D01*
X80501256Y-105418744D01*
X80489723Y-105406019D01*
X80479493Y-105392225D01*
X80470664Y-105377494D01*
X80463321Y-105361970D01*
X80457535Y-105345800D01*
X80453363Y-105329141D01*
X80450843Y-105312153D01*
X80450000Y-105295000D01*
X80450000Y-104020000D01*
X80450843Y-104002847D01*
X80453363Y-103985859D01*
X80457535Y-103969200D01*
X80463321Y-103953030D01*
X80470664Y-103937506D01*
X80479493Y-103922775D01*
X80489723Y-103908981D01*
X80501256Y-103896256D01*
X80513981Y-103884723D01*
X80527775Y-103874493D01*
X80542506Y-103865664D01*
X80558030Y-103858321D01*
X80574200Y-103852535D01*
X80590859Y-103848363D01*
X80607847Y-103845843D01*
X80625000Y-103845000D01*
X80975000Y-103845000D01*
X80992153Y-103845843D01*
G37*
G36*
X80992153Y-101570843D02*
G01*
X81009141Y-101573363D01*
X81025800Y-101577535D01*
X81041970Y-101583321D01*
X81057494Y-101590664D01*
X81072225Y-101599493D01*
X81086019Y-101609723D01*
X81098744Y-101621256D01*
X81110277Y-101633981D01*
X81120507Y-101647775D01*
X81129336Y-101662506D01*
X81136679Y-101678030D01*
X81142465Y-101694200D01*
X81146637Y-101710859D01*
X81149157Y-101727847D01*
X81150000Y-101745000D01*
X81150000Y-103020000D01*
X81149157Y-103037153D01*
X81146637Y-103054141D01*
X81142465Y-103070800D01*
X81136679Y-103086970D01*
X81129336Y-103102494D01*
X81120507Y-103117225D01*
X81110277Y-103131019D01*
X81098744Y-103143744D01*
X81086019Y-103155277D01*
X81072225Y-103165507D01*
X81057494Y-103174336D01*
X81041970Y-103181679D01*
X81025800Y-103187465D01*
X81009141Y-103191637D01*
X80992153Y-103194157D01*
X80975000Y-103195000D01*
X80625000Y-103195000D01*
X80607847Y-103194157D01*
X80590859Y-103191637D01*
X80574200Y-103187465D01*
X80558030Y-103181679D01*
X80542506Y-103174336D01*
X80527775Y-103165507D01*
X80513981Y-103155277D01*
X80501256Y-103143744D01*
X80489723Y-103131019D01*
X80479493Y-103117225D01*
X80470664Y-103102494D01*
X80463321Y-103086970D01*
X80457535Y-103070800D01*
X80453363Y-103054141D01*
X80450843Y-103037153D01*
X80450000Y-103020000D01*
X80450000Y-101745000D01*
X80450843Y-101727847D01*
X80453363Y-101710859D01*
X80457535Y-101694200D01*
X80463321Y-101678030D01*
X80470664Y-101662506D01*
X80479493Y-101647775D01*
X80489723Y-101633981D01*
X80501256Y-101621256D01*
X80513981Y-101609723D01*
X80527775Y-101599493D01*
X80542506Y-101590664D01*
X80558030Y-101583321D01*
X80574200Y-101577535D01*
X80590859Y-101573363D01*
X80607847Y-101570843D01*
X80625000Y-101570000D01*
X80975000Y-101570000D01*
X80992153Y-101570843D01*
G37*
G36*
X81942153Y-101570843D02*
G01*
X81959141Y-101573363D01*
X81975800Y-101577535D01*
X81991970Y-101583321D01*
X82007494Y-101590664D01*
X82022225Y-101599493D01*
X82036019Y-101609723D01*
X82048744Y-101621256D01*
X82060277Y-101633981D01*
X82070507Y-101647775D01*
X82079336Y-101662506D01*
X82086679Y-101678030D01*
X82092465Y-101694200D01*
X82096637Y-101710859D01*
X82099157Y-101727847D01*
X82100000Y-101745000D01*
X82100000Y-103020000D01*
X82099157Y-103037153D01*
X82096637Y-103054141D01*
X82092465Y-103070800D01*
X82086679Y-103086970D01*
X82079336Y-103102494D01*
X82070507Y-103117225D01*
X82060277Y-103131019D01*
X82048744Y-103143744D01*
X82036019Y-103155277D01*
X82022225Y-103165507D01*
X82007494Y-103174336D01*
X81991970Y-103181679D01*
X81975800Y-103187465D01*
X81959141Y-103191637D01*
X81942153Y-103194157D01*
X81925000Y-103195000D01*
X81575000Y-103195000D01*
X81557847Y-103194157D01*
X81540859Y-103191637D01*
X81524200Y-103187465D01*
X81508030Y-103181679D01*
X81492506Y-103174336D01*
X81477775Y-103165507D01*
X81463981Y-103155277D01*
X81451256Y-103143744D01*
X81439723Y-103131019D01*
X81429493Y-103117225D01*
X81420664Y-103102494D01*
X81413321Y-103086970D01*
X81407535Y-103070800D01*
X81403363Y-103054141D01*
X81400843Y-103037153D01*
X81400000Y-103020000D01*
X81400000Y-101745000D01*
X81400843Y-101727847D01*
X81403363Y-101710859D01*
X81407535Y-101694200D01*
X81413321Y-101678030D01*
X81420664Y-101662506D01*
X81429493Y-101647775D01*
X81439723Y-101633981D01*
X81451256Y-101621256D01*
X81463981Y-101609723D01*
X81477775Y-101599493D01*
X81492506Y-101590664D01*
X81508030Y-101583321D01*
X81524200Y-101577535D01*
X81540859Y-101573363D01*
X81557847Y-101570843D01*
X81575000Y-101570000D01*
X81925000Y-101570000D01*
X81942153Y-101570843D01*
G37*
G36*
X82892153Y-101570843D02*
G01*
X82909141Y-101573363D01*
X82925800Y-101577535D01*
X82941970Y-101583321D01*
X82957494Y-101590664D01*
X82972225Y-101599493D01*
X82986019Y-101609723D01*
X82998744Y-101621256D01*
X83010277Y-101633981D01*
X83020507Y-101647775D01*
X83029336Y-101662506D01*
X83036679Y-101678030D01*
X83042465Y-101694200D01*
X83046637Y-101710859D01*
X83049157Y-101727847D01*
X83050000Y-101745000D01*
X83050000Y-103020000D01*
X83049157Y-103037153D01*
X83046637Y-103054141D01*
X83042465Y-103070800D01*
X83036679Y-103086970D01*
X83029336Y-103102494D01*
X83020507Y-103117225D01*
X83010277Y-103131019D01*
X82998744Y-103143744D01*
X82986019Y-103155277D01*
X82972225Y-103165507D01*
X82957494Y-103174336D01*
X82941970Y-103181679D01*
X82925800Y-103187465D01*
X82909141Y-103191637D01*
X82892153Y-103194157D01*
X82875000Y-103195000D01*
X82525000Y-103195000D01*
X82507847Y-103194157D01*
X82490859Y-103191637D01*
X82474200Y-103187465D01*
X82458030Y-103181679D01*
X82442506Y-103174336D01*
X82427775Y-103165507D01*
X82413981Y-103155277D01*
X82401256Y-103143744D01*
X82389723Y-103131019D01*
X82379493Y-103117225D01*
X82370664Y-103102494D01*
X82363321Y-103086970D01*
X82357535Y-103070800D01*
X82353363Y-103054141D01*
X82350843Y-103037153D01*
X82350000Y-103020000D01*
X82350000Y-101745000D01*
X82350843Y-101727847D01*
X82353363Y-101710859D01*
X82357535Y-101694200D01*
X82363321Y-101678030D01*
X82370664Y-101662506D01*
X82379493Y-101647775D01*
X82389723Y-101633981D01*
X82401256Y-101621256D01*
X82413981Y-101609723D01*
X82427775Y-101599493D01*
X82442506Y-101590664D01*
X82458030Y-101583321D01*
X82474200Y-101577535D01*
X82490859Y-101573363D01*
X82507847Y-101570843D01*
X82525000Y-101570000D01*
X82875000Y-101570000D01*
X82892153Y-101570843D01*
G37*
%TD*%
%TO.C,U3*%
G36*
X89332153Y-103525843D02*
G01*
X89349141Y-103528363D01*
X89365800Y-103532535D01*
X89381970Y-103538321D01*
X89397494Y-103545664D01*
X89412225Y-103554493D01*
X89426019Y-103564723D01*
X89438744Y-103576256D01*
X89450277Y-103588981D01*
X89460507Y-103602775D01*
X89469336Y-103617506D01*
X89476679Y-103633030D01*
X89482465Y-103649200D01*
X89486637Y-103665859D01*
X89489157Y-103682847D01*
X89490000Y-103700000D01*
X89490000Y-104975000D01*
X89489157Y-104992153D01*
X89486637Y-105009141D01*
X89482465Y-105025800D01*
X89476679Y-105041970D01*
X89469336Y-105057494D01*
X89460507Y-105072225D01*
X89450277Y-105086019D01*
X89438744Y-105098744D01*
X89426019Y-105110277D01*
X89412225Y-105120507D01*
X89397494Y-105129336D01*
X89381970Y-105136679D01*
X89365800Y-105142465D01*
X89349141Y-105146637D01*
X89332153Y-105149157D01*
X89315000Y-105150000D01*
X88965000Y-105150000D01*
X88947847Y-105149157D01*
X88930859Y-105146637D01*
X88914200Y-105142465D01*
X88898030Y-105136679D01*
X88882506Y-105129336D01*
X88867775Y-105120507D01*
X88853981Y-105110277D01*
X88841256Y-105098744D01*
X88829723Y-105086019D01*
X88819493Y-105072225D01*
X88810664Y-105057494D01*
X88803321Y-105041970D01*
X88797535Y-105025800D01*
X88793363Y-105009141D01*
X88790843Y-104992153D01*
X88790000Y-104975000D01*
X88790000Y-103700000D01*
X88790843Y-103682847D01*
X88793363Y-103665859D01*
X88797535Y-103649200D01*
X88803321Y-103633030D01*
X88810664Y-103617506D01*
X88819493Y-103602775D01*
X88829723Y-103588981D01*
X88841256Y-103576256D01*
X88853981Y-103564723D01*
X88867775Y-103554493D01*
X88882506Y-103545664D01*
X88898030Y-103538321D01*
X88914200Y-103532535D01*
X88930859Y-103528363D01*
X88947847Y-103525843D01*
X88965000Y-103525000D01*
X89315000Y-103525000D01*
X89332153Y-103525843D01*
G37*
G36*
X88382153Y-103525843D02*
G01*
X88399141Y-103528363D01*
X88415800Y-103532535D01*
X88431970Y-103538321D01*
X88447494Y-103545664D01*
X88462225Y-103554493D01*
X88476019Y-103564723D01*
X88488744Y-103576256D01*
X88500277Y-103588981D01*
X88510507Y-103602775D01*
X88519336Y-103617506D01*
X88526679Y-103633030D01*
X88532465Y-103649200D01*
X88536637Y-103665859D01*
X88539157Y-103682847D01*
X88540000Y-103700000D01*
X88540000Y-104975000D01*
X88539157Y-104992153D01*
X88536637Y-105009141D01*
X88532465Y-105025800D01*
X88526679Y-105041970D01*
X88519336Y-105057494D01*
X88510507Y-105072225D01*
X88500277Y-105086019D01*
X88488744Y-105098744D01*
X88476019Y-105110277D01*
X88462225Y-105120507D01*
X88447494Y-105129336D01*
X88431970Y-105136679D01*
X88415800Y-105142465D01*
X88399141Y-105146637D01*
X88382153Y-105149157D01*
X88365000Y-105150000D01*
X88015000Y-105150000D01*
X87997847Y-105149157D01*
X87980859Y-105146637D01*
X87964200Y-105142465D01*
X87948030Y-105136679D01*
X87932506Y-105129336D01*
X87917775Y-105120507D01*
X87903981Y-105110277D01*
X87891256Y-105098744D01*
X87879723Y-105086019D01*
X87869493Y-105072225D01*
X87860664Y-105057494D01*
X87853321Y-105041970D01*
X87847535Y-105025800D01*
X87843363Y-105009141D01*
X87840843Y-104992153D01*
X87840000Y-104975000D01*
X87840000Y-103700000D01*
X87840843Y-103682847D01*
X87843363Y-103665859D01*
X87847535Y-103649200D01*
X87853321Y-103633030D01*
X87860664Y-103617506D01*
X87869493Y-103602775D01*
X87879723Y-103588981D01*
X87891256Y-103576256D01*
X87903981Y-103564723D01*
X87917775Y-103554493D01*
X87932506Y-103545664D01*
X87948030Y-103538321D01*
X87964200Y-103532535D01*
X87980859Y-103528363D01*
X87997847Y-103525843D01*
X88015000Y-103525000D01*
X88365000Y-103525000D01*
X88382153Y-103525843D01*
G37*
G36*
X87432153Y-103525843D02*
G01*
X87449141Y-103528363D01*
X87465800Y-103532535D01*
X87481970Y-103538321D01*
X87497494Y-103545664D01*
X87512225Y-103554493D01*
X87526019Y-103564723D01*
X87538744Y-103576256D01*
X87550277Y-103588981D01*
X87560507Y-103602775D01*
X87569336Y-103617506D01*
X87576679Y-103633030D01*
X87582465Y-103649200D01*
X87586637Y-103665859D01*
X87589157Y-103682847D01*
X87590000Y-103700000D01*
X87590000Y-104975000D01*
X87589157Y-104992153D01*
X87586637Y-105009141D01*
X87582465Y-105025800D01*
X87576679Y-105041970D01*
X87569336Y-105057494D01*
X87560507Y-105072225D01*
X87550277Y-105086019D01*
X87538744Y-105098744D01*
X87526019Y-105110277D01*
X87512225Y-105120507D01*
X87497494Y-105129336D01*
X87481970Y-105136679D01*
X87465800Y-105142465D01*
X87449141Y-105146637D01*
X87432153Y-105149157D01*
X87415000Y-105150000D01*
X87065000Y-105150000D01*
X87047847Y-105149157D01*
X87030859Y-105146637D01*
X87014200Y-105142465D01*
X86998030Y-105136679D01*
X86982506Y-105129336D01*
X86967775Y-105120507D01*
X86953981Y-105110277D01*
X86941256Y-105098744D01*
X86929723Y-105086019D01*
X86919493Y-105072225D01*
X86910664Y-105057494D01*
X86903321Y-105041970D01*
X86897535Y-105025800D01*
X86893363Y-105009141D01*
X86890843Y-104992153D01*
X86890000Y-104975000D01*
X86890000Y-103700000D01*
X86890843Y-103682847D01*
X86893363Y-103665859D01*
X86897535Y-103649200D01*
X86903321Y-103633030D01*
X86910664Y-103617506D01*
X86919493Y-103602775D01*
X86929723Y-103588981D01*
X86941256Y-103576256D01*
X86953981Y-103564723D01*
X86967775Y-103554493D01*
X86982506Y-103545664D01*
X86998030Y-103538321D01*
X87014200Y-103532535D01*
X87030859Y-103528363D01*
X87047847Y-103525843D01*
X87065000Y-103525000D01*
X87415000Y-103525000D01*
X87432153Y-103525843D01*
G37*
G36*
X87432153Y-101250843D02*
G01*
X87449141Y-101253363D01*
X87465800Y-101257535D01*
X87481970Y-101263321D01*
X87497494Y-101270664D01*
X87512225Y-101279493D01*
X87526019Y-101289723D01*
X87538744Y-101301256D01*
X87550277Y-101313981D01*
X87560507Y-101327775D01*
X87569336Y-101342506D01*
X87576679Y-101358030D01*
X87582465Y-101374200D01*
X87586637Y-101390859D01*
X87589157Y-101407847D01*
X87590000Y-101425000D01*
X87590000Y-102700000D01*
X87589157Y-102717153D01*
X87586637Y-102734141D01*
X87582465Y-102750800D01*
X87576679Y-102766970D01*
X87569336Y-102782494D01*
X87560507Y-102797225D01*
X87550277Y-102811019D01*
X87538744Y-102823744D01*
X87526019Y-102835277D01*
X87512225Y-102845507D01*
X87497494Y-102854336D01*
X87481970Y-102861679D01*
X87465800Y-102867465D01*
X87449141Y-102871637D01*
X87432153Y-102874157D01*
X87415000Y-102875000D01*
X87065000Y-102875000D01*
X87047847Y-102874157D01*
X87030859Y-102871637D01*
X87014200Y-102867465D01*
X86998030Y-102861679D01*
X86982506Y-102854336D01*
X86967775Y-102845507D01*
X86953981Y-102835277D01*
X86941256Y-102823744D01*
X86929723Y-102811019D01*
X86919493Y-102797225D01*
X86910664Y-102782494D01*
X86903321Y-102766970D01*
X86897535Y-102750800D01*
X86893363Y-102734141D01*
X86890843Y-102717153D01*
X86890000Y-102700000D01*
X86890000Y-101425000D01*
X86890843Y-101407847D01*
X86893363Y-101390859D01*
X86897535Y-101374200D01*
X86903321Y-101358030D01*
X86910664Y-101342506D01*
X86919493Y-101327775D01*
X86929723Y-101313981D01*
X86941256Y-101301256D01*
X86953981Y-101289723D01*
X86967775Y-101279493D01*
X86982506Y-101270664D01*
X86998030Y-101263321D01*
X87014200Y-101257535D01*
X87030859Y-101253363D01*
X87047847Y-101250843D01*
X87065000Y-101250000D01*
X87415000Y-101250000D01*
X87432153Y-101250843D01*
G37*
G36*
X88382153Y-101250843D02*
G01*
X88399141Y-101253363D01*
X88415800Y-101257535D01*
X88431970Y-101263321D01*
X88447494Y-101270664D01*
X88462225Y-101279493D01*
X88476019Y-101289723D01*
X88488744Y-101301256D01*
X88500277Y-101313981D01*
X88510507Y-101327775D01*
X88519336Y-101342506D01*
X88526679Y-101358030D01*
X88532465Y-101374200D01*
X88536637Y-101390859D01*
X88539157Y-101407847D01*
X88540000Y-101425000D01*
X88540000Y-102700000D01*
X88539157Y-102717153D01*
X88536637Y-102734141D01*
X88532465Y-102750800D01*
X88526679Y-102766970D01*
X88519336Y-102782494D01*
X88510507Y-102797225D01*
X88500277Y-102811019D01*
X88488744Y-102823744D01*
X88476019Y-102835277D01*
X88462225Y-102845507D01*
X88447494Y-102854336D01*
X88431970Y-102861679D01*
X88415800Y-102867465D01*
X88399141Y-102871637D01*
X88382153Y-102874157D01*
X88365000Y-102875000D01*
X88015000Y-102875000D01*
X87997847Y-102874157D01*
X87980859Y-102871637D01*
X87964200Y-102867465D01*
X87948030Y-102861679D01*
X87932506Y-102854336D01*
X87917775Y-102845507D01*
X87903981Y-102835277D01*
X87891256Y-102823744D01*
X87879723Y-102811019D01*
X87869493Y-102797225D01*
X87860664Y-102782494D01*
X87853321Y-102766970D01*
X87847535Y-102750800D01*
X87843363Y-102734141D01*
X87840843Y-102717153D01*
X87840000Y-102700000D01*
X87840000Y-101425000D01*
X87840843Y-101407847D01*
X87843363Y-101390859D01*
X87847535Y-101374200D01*
X87853321Y-101358030D01*
X87860664Y-101342506D01*
X87869493Y-101327775D01*
X87879723Y-101313981D01*
X87891256Y-101301256D01*
X87903981Y-101289723D01*
X87917775Y-101279493D01*
X87932506Y-101270664D01*
X87948030Y-101263321D01*
X87964200Y-101257535D01*
X87980859Y-101253363D01*
X87997847Y-101250843D01*
X88015000Y-101250000D01*
X88365000Y-101250000D01*
X88382153Y-101250843D01*
G37*
G36*
X89332153Y-101250843D02*
G01*
X89349141Y-101253363D01*
X89365800Y-101257535D01*
X89381970Y-101263321D01*
X89397494Y-101270664D01*
X89412225Y-101279493D01*
X89426019Y-101289723D01*
X89438744Y-101301256D01*
X89450277Y-101313981D01*
X89460507Y-101327775D01*
X89469336Y-101342506D01*
X89476679Y-101358030D01*
X89482465Y-101374200D01*
X89486637Y-101390859D01*
X89489157Y-101407847D01*
X89490000Y-101425000D01*
X89490000Y-102700000D01*
X89489157Y-102717153D01*
X89486637Y-102734141D01*
X89482465Y-102750800D01*
X89476679Y-102766970D01*
X89469336Y-102782494D01*
X89460507Y-102797225D01*
X89450277Y-102811019D01*
X89438744Y-102823744D01*
X89426019Y-102835277D01*
X89412225Y-102845507D01*
X89397494Y-102854336D01*
X89381970Y-102861679D01*
X89365800Y-102867465D01*
X89349141Y-102871637D01*
X89332153Y-102874157D01*
X89315000Y-102875000D01*
X88965000Y-102875000D01*
X88947847Y-102874157D01*
X88930859Y-102871637D01*
X88914200Y-102867465D01*
X88898030Y-102861679D01*
X88882506Y-102854336D01*
X88867775Y-102845507D01*
X88853981Y-102835277D01*
X88841256Y-102823744D01*
X88829723Y-102811019D01*
X88819493Y-102797225D01*
X88810664Y-102782494D01*
X88803321Y-102766970D01*
X88797535Y-102750800D01*
X88793363Y-102734141D01*
X88790843Y-102717153D01*
X88790000Y-102700000D01*
X88790000Y-101425000D01*
X88790843Y-101407847D01*
X88793363Y-101390859D01*
X88797535Y-101374200D01*
X88803321Y-101358030D01*
X88810664Y-101342506D01*
X88819493Y-101327775D01*
X88829723Y-101313981D01*
X88841256Y-101301256D01*
X88853981Y-101289723D01*
X88867775Y-101279493D01*
X88882506Y-101270664D01*
X88898030Y-101263321D01*
X88914200Y-101257535D01*
X88930859Y-101253363D01*
X88947847Y-101250843D01*
X88965000Y-101250000D01*
X89315000Y-101250000D01*
X89332153Y-101250843D01*
G37*
%TD*%
%TO.C,R5*%
G36*
X138305680Y-93631384D02*
G01*
X138333588Y-93635524D01*
X138360957Y-93642380D01*
X138387521Y-93651885D01*
X138413027Y-93663948D01*
X138437226Y-93678452D01*
X138459888Y-93695259D01*
X138480793Y-93714207D01*
X138499741Y-93735112D01*
X138516548Y-93757774D01*
X138531052Y-93781973D01*
X138543115Y-93807479D01*
X138552620Y-93834043D01*
X138559476Y-93861412D01*
X138563616Y-93889320D01*
X138565000Y-93917500D01*
X138565000Y-94592500D01*
X138563616Y-94620680D01*
X138559476Y-94648588D01*
X138552620Y-94675957D01*
X138543115Y-94702521D01*
X138531052Y-94728027D01*
X138516548Y-94752226D01*
X138499741Y-94774888D01*
X138480793Y-94795793D01*
X138459888Y-94814741D01*
X138437226Y-94831548D01*
X138413027Y-94846052D01*
X138387521Y-94858115D01*
X138360957Y-94867620D01*
X138333588Y-94874476D01*
X138305680Y-94878616D01*
X138277500Y-94880000D01*
X137702500Y-94880000D01*
X137674320Y-94878616D01*
X137646412Y-94874476D01*
X137619043Y-94867620D01*
X137592479Y-94858115D01*
X137566973Y-94846052D01*
X137542774Y-94831548D01*
X137520112Y-94814741D01*
X137499207Y-94795793D01*
X137480259Y-94774888D01*
X137463452Y-94752226D01*
X137448948Y-94728027D01*
X137436885Y-94702521D01*
X137427380Y-94675957D01*
X137420524Y-94648588D01*
X137416384Y-94620680D01*
X137415000Y-94592500D01*
X137415000Y-93917500D01*
X137416384Y-93889320D01*
X137420524Y-93861412D01*
X137427380Y-93834043D01*
X137436885Y-93807479D01*
X137448948Y-93781973D01*
X137463452Y-93757774D01*
X137480259Y-93735112D01*
X137499207Y-93714207D01*
X137520112Y-93695259D01*
X137542774Y-93678452D01*
X137566973Y-93663948D01*
X137592479Y-93651885D01*
X137619043Y-93642380D01*
X137646412Y-93635524D01*
X137674320Y-93631384D01*
X137702500Y-93630000D01*
X138277500Y-93630000D01*
X138305680Y-93631384D01*
G37*
G36*
X138305680Y-95381384D02*
G01*
X138333588Y-95385524D01*
X138360957Y-95392380D01*
X138387521Y-95401885D01*
X138413027Y-95413948D01*
X138437226Y-95428452D01*
X138459888Y-95445259D01*
X138480793Y-95464207D01*
X138499741Y-95485112D01*
X138516548Y-95507774D01*
X138531052Y-95531973D01*
X138543115Y-95557479D01*
X138552620Y-95584043D01*
X138559476Y-95611412D01*
X138563616Y-95639320D01*
X138565000Y-95667500D01*
X138565000Y-96342500D01*
X138563616Y-96370680D01*
X138559476Y-96398588D01*
X138552620Y-96425957D01*
X138543115Y-96452521D01*
X138531052Y-96478027D01*
X138516548Y-96502226D01*
X138499741Y-96524888D01*
X138480793Y-96545793D01*
X138459888Y-96564741D01*
X138437226Y-96581548D01*
X138413027Y-96596052D01*
X138387521Y-96608115D01*
X138360957Y-96617620D01*
X138333588Y-96624476D01*
X138305680Y-96628616D01*
X138277500Y-96630000D01*
X137702500Y-96630000D01*
X137674320Y-96628616D01*
X137646412Y-96624476D01*
X137619043Y-96617620D01*
X137592479Y-96608115D01*
X137566973Y-96596052D01*
X137542774Y-96581548D01*
X137520112Y-96564741D01*
X137499207Y-96545793D01*
X137480259Y-96524888D01*
X137463452Y-96502226D01*
X137448948Y-96478027D01*
X137436885Y-96452521D01*
X137427380Y-96425957D01*
X137420524Y-96398588D01*
X137416384Y-96370680D01*
X137415000Y-96342500D01*
X137415000Y-95667500D01*
X137416384Y-95639320D01*
X137420524Y-95611412D01*
X137427380Y-95584043D01*
X137436885Y-95557479D01*
X137448948Y-95531973D01*
X137463452Y-95507774D01*
X137480259Y-95485112D01*
X137499207Y-95464207D01*
X137520112Y-95445259D01*
X137542774Y-95428452D01*
X137566973Y-95413948D01*
X137592479Y-95401885D01*
X137619043Y-95392380D01*
X137646412Y-95385524D01*
X137674320Y-95381384D01*
X137702500Y-95380000D01*
X138277500Y-95380000D01*
X138305680Y-95381384D01*
G37*
%TD*%
D21*
%TO.C,Q2*%
X134130000Y-95720000D03*
X134130000Y-91120000D03*
X134130000Y-93420000D03*
D22*
X127830000Y-93420000D03*
%TD*%
D13*
%TO.C,J8*%
X105820000Y-104490000D03*
X100820000Y-104490000D03*
D10*
G36*
X96671955Y-102591324D02*
G01*
X96698650Y-102595284D01*
X96724828Y-102601841D01*
X96750238Y-102610933D01*
X96774634Y-102622472D01*
X96797782Y-102636346D01*
X96819458Y-102652422D01*
X96839454Y-102670546D01*
X96857578Y-102690542D01*
X96873654Y-102712218D01*
X96887528Y-102735366D01*
X96899067Y-102759762D01*
X96908159Y-102785172D01*
X96914716Y-102811350D01*
X96918676Y-102838045D01*
X96920000Y-102865000D01*
X96920000Y-106115000D01*
X96918676Y-106141955D01*
X96914716Y-106168650D01*
X96908159Y-106194828D01*
X96899067Y-106220238D01*
X96887528Y-106244634D01*
X96873654Y-106267782D01*
X96857578Y-106289458D01*
X96839454Y-106309454D01*
X96819458Y-106327578D01*
X96797782Y-106343654D01*
X96774634Y-106357528D01*
X96750238Y-106369067D01*
X96724828Y-106378159D01*
X96698650Y-106384716D01*
X96671955Y-106388676D01*
X96645000Y-106390000D01*
X94995000Y-106390000D01*
X94968045Y-106388676D01*
X94941350Y-106384716D01*
X94915172Y-106378159D01*
X94889762Y-106369067D01*
X94865366Y-106357528D01*
X94842218Y-106343654D01*
X94820542Y-106327578D01*
X94800546Y-106309454D01*
X94782422Y-106289458D01*
X94766346Y-106267782D01*
X94752472Y-106244634D01*
X94740933Y-106220238D01*
X94731841Y-106194828D01*
X94725284Y-106168650D01*
X94721324Y-106141955D01*
X94720000Y-106115000D01*
X94720000Y-102865000D01*
X94721324Y-102838045D01*
X94725284Y-102811350D01*
X94731841Y-102785172D01*
X94740933Y-102759762D01*
X94752472Y-102735366D01*
X94766346Y-102712218D01*
X94782422Y-102690542D01*
X94800546Y-102670546D01*
X94820542Y-102652422D01*
X94842218Y-102636346D01*
X94865366Y-102622472D01*
X94889762Y-102610933D01*
X94915172Y-102601841D01*
X94941350Y-102595284D01*
X94968045Y-102591324D01*
X94995000Y-102590000D01*
X96645000Y-102590000D01*
X96671955Y-102591324D01*
G37*
%TD*%
D23*
%TO.C,D5*%
X138100000Y-88950000D03*
X138100000Y-92250000D03*
%TD*%
%TO.C,D3*%
X100800000Y-90850000D03*
X100800000Y-87550000D03*
%TD*%
D10*
%TO.C,R4*%
G36*
X82740680Y-106026384D02*
G01*
X82768588Y-106030524D01*
X82795957Y-106037380D01*
X82822521Y-106046885D01*
X82848027Y-106058948D01*
X82872226Y-106073452D01*
X82894888Y-106090259D01*
X82915793Y-106109207D01*
X82934741Y-106130112D01*
X82951548Y-106152774D01*
X82966052Y-106176973D01*
X82978115Y-106202479D01*
X82987620Y-106229043D01*
X82994476Y-106256412D01*
X82998616Y-106284320D01*
X83000000Y-106312500D01*
X83000000Y-106887500D01*
X82998616Y-106915680D01*
X82994476Y-106943588D01*
X82987620Y-106970957D01*
X82978115Y-106997521D01*
X82966052Y-107023027D01*
X82951548Y-107047226D01*
X82934741Y-107069888D01*
X82915793Y-107090793D01*
X82894888Y-107109741D01*
X82872226Y-107126548D01*
X82848027Y-107141052D01*
X82822521Y-107153115D01*
X82795957Y-107162620D01*
X82768588Y-107169476D01*
X82740680Y-107173616D01*
X82712500Y-107175000D01*
X82037500Y-107175000D01*
X82009320Y-107173616D01*
X81981412Y-107169476D01*
X81954043Y-107162620D01*
X81927479Y-107153115D01*
X81901973Y-107141052D01*
X81877774Y-107126548D01*
X81855112Y-107109741D01*
X81834207Y-107090793D01*
X81815259Y-107069888D01*
X81798452Y-107047226D01*
X81783948Y-107023027D01*
X81771885Y-106997521D01*
X81762380Y-106970957D01*
X81755524Y-106943588D01*
X81751384Y-106915680D01*
X81750000Y-106887500D01*
X81750000Y-106312500D01*
X81751384Y-106284320D01*
X81755524Y-106256412D01*
X81762380Y-106229043D01*
X81771885Y-106202479D01*
X81783948Y-106176973D01*
X81798452Y-106152774D01*
X81815259Y-106130112D01*
X81834207Y-106109207D01*
X81855112Y-106090259D01*
X81877774Y-106073452D01*
X81901973Y-106058948D01*
X81927479Y-106046885D01*
X81954043Y-106037380D01*
X81981412Y-106030524D01*
X82009320Y-106026384D01*
X82037500Y-106025000D01*
X82712500Y-106025000D01*
X82740680Y-106026384D01*
G37*
G36*
X80990680Y-106026384D02*
G01*
X81018588Y-106030524D01*
X81045957Y-106037380D01*
X81072521Y-106046885D01*
X81098027Y-106058948D01*
X81122226Y-106073452D01*
X81144888Y-106090259D01*
X81165793Y-106109207D01*
X81184741Y-106130112D01*
X81201548Y-106152774D01*
X81216052Y-106176973D01*
X81228115Y-106202479D01*
X81237620Y-106229043D01*
X81244476Y-106256412D01*
X81248616Y-106284320D01*
X81250000Y-106312500D01*
X81250000Y-106887500D01*
X81248616Y-106915680D01*
X81244476Y-106943588D01*
X81237620Y-106970957D01*
X81228115Y-106997521D01*
X81216052Y-107023027D01*
X81201548Y-107047226D01*
X81184741Y-107069888D01*
X81165793Y-107090793D01*
X81144888Y-107109741D01*
X81122226Y-107126548D01*
X81098027Y-107141052D01*
X81072521Y-107153115D01*
X81045957Y-107162620D01*
X81018588Y-107169476D01*
X80990680Y-107173616D01*
X80962500Y-107175000D01*
X80287500Y-107175000D01*
X80259320Y-107173616D01*
X80231412Y-107169476D01*
X80204043Y-107162620D01*
X80177479Y-107153115D01*
X80151973Y-107141052D01*
X80127774Y-107126548D01*
X80105112Y-107109741D01*
X80084207Y-107090793D01*
X80065259Y-107069888D01*
X80048452Y-107047226D01*
X80033948Y-107023027D01*
X80021885Y-106997521D01*
X80012380Y-106970957D01*
X80005524Y-106943588D01*
X80001384Y-106915680D01*
X80000000Y-106887500D01*
X80000000Y-106312500D01*
X80001384Y-106284320D01*
X80005524Y-106256412D01*
X80012380Y-106229043D01*
X80021885Y-106202479D01*
X80033948Y-106176973D01*
X80048452Y-106152774D01*
X80065259Y-106130112D01*
X80084207Y-106109207D01*
X80105112Y-106090259D01*
X80127774Y-106073452D01*
X80151973Y-106058948D01*
X80177479Y-106046885D01*
X80204043Y-106037380D01*
X80231412Y-106030524D01*
X80259320Y-106026384D01*
X80287500Y-106025000D01*
X80962500Y-106025000D01*
X80990680Y-106026384D01*
G37*
%TD*%
%TO.C,R3*%
G36*
X89180680Y-105756384D02*
G01*
X89208588Y-105760524D01*
X89235957Y-105767380D01*
X89262521Y-105776885D01*
X89288027Y-105788948D01*
X89312226Y-105803452D01*
X89334888Y-105820259D01*
X89355793Y-105839207D01*
X89374741Y-105860112D01*
X89391548Y-105882774D01*
X89406052Y-105906973D01*
X89418115Y-105932479D01*
X89427620Y-105959043D01*
X89434476Y-105986412D01*
X89438616Y-106014320D01*
X89440000Y-106042500D01*
X89440000Y-106617500D01*
X89438616Y-106645680D01*
X89434476Y-106673588D01*
X89427620Y-106700957D01*
X89418115Y-106727521D01*
X89406052Y-106753027D01*
X89391548Y-106777226D01*
X89374741Y-106799888D01*
X89355793Y-106820793D01*
X89334888Y-106839741D01*
X89312226Y-106856548D01*
X89288027Y-106871052D01*
X89262521Y-106883115D01*
X89235957Y-106892620D01*
X89208588Y-106899476D01*
X89180680Y-106903616D01*
X89152500Y-106905000D01*
X88477500Y-106905000D01*
X88449320Y-106903616D01*
X88421412Y-106899476D01*
X88394043Y-106892620D01*
X88367479Y-106883115D01*
X88341973Y-106871052D01*
X88317774Y-106856548D01*
X88295112Y-106839741D01*
X88274207Y-106820793D01*
X88255259Y-106799888D01*
X88238452Y-106777226D01*
X88223948Y-106753027D01*
X88211885Y-106727521D01*
X88202380Y-106700957D01*
X88195524Y-106673588D01*
X88191384Y-106645680D01*
X88190000Y-106617500D01*
X88190000Y-106042500D01*
X88191384Y-106014320D01*
X88195524Y-105986412D01*
X88202380Y-105959043D01*
X88211885Y-105932479D01*
X88223948Y-105906973D01*
X88238452Y-105882774D01*
X88255259Y-105860112D01*
X88274207Y-105839207D01*
X88295112Y-105820259D01*
X88317774Y-105803452D01*
X88341973Y-105788948D01*
X88367479Y-105776885D01*
X88394043Y-105767380D01*
X88421412Y-105760524D01*
X88449320Y-105756384D01*
X88477500Y-105755000D01*
X89152500Y-105755000D01*
X89180680Y-105756384D01*
G37*
G36*
X87430680Y-105756384D02*
G01*
X87458588Y-105760524D01*
X87485957Y-105767380D01*
X87512521Y-105776885D01*
X87538027Y-105788948D01*
X87562226Y-105803452D01*
X87584888Y-105820259D01*
X87605793Y-105839207D01*
X87624741Y-105860112D01*
X87641548Y-105882774D01*
X87656052Y-105906973D01*
X87668115Y-105932479D01*
X87677620Y-105959043D01*
X87684476Y-105986412D01*
X87688616Y-106014320D01*
X87690000Y-106042500D01*
X87690000Y-106617500D01*
X87688616Y-106645680D01*
X87684476Y-106673588D01*
X87677620Y-106700957D01*
X87668115Y-106727521D01*
X87656052Y-106753027D01*
X87641548Y-106777226D01*
X87624741Y-106799888D01*
X87605793Y-106820793D01*
X87584888Y-106839741D01*
X87562226Y-106856548D01*
X87538027Y-106871052D01*
X87512521Y-106883115D01*
X87485957Y-106892620D01*
X87458588Y-106899476D01*
X87430680Y-106903616D01*
X87402500Y-106905000D01*
X86727500Y-106905000D01*
X86699320Y-106903616D01*
X86671412Y-106899476D01*
X86644043Y-106892620D01*
X86617479Y-106883115D01*
X86591973Y-106871052D01*
X86567774Y-106856548D01*
X86545112Y-106839741D01*
X86524207Y-106820793D01*
X86505259Y-106799888D01*
X86488452Y-106777226D01*
X86473948Y-106753027D01*
X86461885Y-106727521D01*
X86452380Y-106700957D01*
X86445524Y-106673588D01*
X86441384Y-106645680D01*
X86440000Y-106617500D01*
X86440000Y-106042500D01*
X86441384Y-106014320D01*
X86445524Y-105986412D01*
X86452380Y-105959043D01*
X86461885Y-105932479D01*
X86473948Y-105906973D01*
X86488452Y-105882774D01*
X86505259Y-105860112D01*
X86524207Y-105839207D01*
X86545112Y-105820259D01*
X86567774Y-105803452D01*
X86591973Y-105788948D01*
X86617479Y-105776885D01*
X86644043Y-105767380D01*
X86671412Y-105760524D01*
X86699320Y-105756384D01*
X86727500Y-105755000D01*
X87402500Y-105755000D01*
X87430680Y-105756384D01*
G37*
%TD*%
D11*
%TO.C,J6*%
X84630000Y-74730000D03*
X84630000Y-73460000D03*
X84630000Y-72190000D03*
D12*
X84630000Y-70920000D03*
%TD*%
D24*
%TO.C,U1*%
X100190000Y-82000000D03*
X97650000Y-82000000D03*
X97650000Y-75700000D03*
X100190000Y-75700000D03*
%TD*%
D25*
%TO.C,SW2*%
X133775000Y-78350000D03*
X133775000Y-73850000D03*
X125825000Y-73850000D03*
X125825000Y-78350000D03*
%TD*%
D10*
%TO.C,R2*%
G36*
X98715680Y-88951384D02*
G01*
X98743588Y-88955524D01*
X98770957Y-88962380D01*
X98797521Y-88971885D01*
X98823027Y-88983948D01*
X98847226Y-88998452D01*
X98869888Y-89015259D01*
X98890793Y-89034207D01*
X98909741Y-89055112D01*
X98926548Y-89077774D01*
X98941052Y-89101973D01*
X98953115Y-89127479D01*
X98962620Y-89154043D01*
X98969476Y-89181412D01*
X98973616Y-89209320D01*
X98975000Y-89237500D01*
X98975000Y-89912500D01*
X98973616Y-89940680D01*
X98969476Y-89968588D01*
X98962620Y-89995957D01*
X98953115Y-90022521D01*
X98941052Y-90048027D01*
X98926548Y-90072226D01*
X98909741Y-90094888D01*
X98890793Y-90115793D01*
X98869888Y-90134741D01*
X98847226Y-90151548D01*
X98823027Y-90166052D01*
X98797521Y-90178115D01*
X98770957Y-90187620D01*
X98743588Y-90194476D01*
X98715680Y-90198616D01*
X98687500Y-90200000D01*
X98112500Y-90200000D01*
X98084320Y-90198616D01*
X98056412Y-90194476D01*
X98029043Y-90187620D01*
X98002479Y-90178115D01*
X97976973Y-90166052D01*
X97952774Y-90151548D01*
X97930112Y-90134741D01*
X97909207Y-90115793D01*
X97890259Y-90094888D01*
X97873452Y-90072226D01*
X97858948Y-90048027D01*
X97846885Y-90022521D01*
X97837380Y-89995957D01*
X97830524Y-89968588D01*
X97826384Y-89940680D01*
X97825000Y-89912500D01*
X97825000Y-89237500D01*
X97826384Y-89209320D01*
X97830524Y-89181412D01*
X97837380Y-89154043D01*
X97846885Y-89127479D01*
X97858948Y-89101973D01*
X97873452Y-89077774D01*
X97890259Y-89055112D01*
X97909207Y-89034207D01*
X97930112Y-89015259D01*
X97952774Y-88998452D01*
X97976973Y-88983948D01*
X98002479Y-88971885D01*
X98029043Y-88962380D01*
X98056412Y-88955524D01*
X98084320Y-88951384D01*
X98112500Y-88950000D01*
X98687500Y-88950000D01*
X98715680Y-88951384D01*
G37*
G36*
X98715680Y-87201384D02*
G01*
X98743588Y-87205524D01*
X98770957Y-87212380D01*
X98797521Y-87221885D01*
X98823027Y-87233948D01*
X98847226Y-87248452D01*
X98869888Y-87265259D01*
X98890793Y-87284207D01*
X98909741Y-87305112D01*
X98926548Y-87327774D01*
X98941052Y-87351973D01*
X98953115Y-87377479D01*
X98962620Y-87404043D01*
X98969476Y-87431412D01*
X98973616Y-87459320D01*
X98975000Y-87487500D01*
X98975000Y-88162500D01*
X98973616Y-88190680D01*
X98969476Y-88218588D01*
X98962620Y-88245957D01*
X98953115Y-88272521D01*
X98941052Y-88298027D01*
X98926548Y-88322226D01*
X98909741Y-88344888D01*
X98890793Y-88365793D01*
X98869888Y-88384741D01*
X98847226Y-88401548D01*
X98823027Y-88416052D01*
X98797521Y-88428115D01*
X98770957Y-88437620D01*
X98743588Y-88444476D01*
X98715680Y-88448616D01*
X98687500Y-88450000D01*
X98112500Y-88450000D01*
X98084320Y-88448616D01*
X98056412Y-88444476D01*
X98029043Y-88437620D01*
X98002479Y-88428115D01*
X97976973Y-88416052D01*
X97952774Y-88401548D01*
X97930112Y-88384741D01*
X97909207Y-88365793D01*
X97890259Y-88344888D01*
X97873452Y-88322226D01*
X97858948Y-88298027D01*
X97846885Y-88272521D01*
X97837380Y-88245957D01*
X97830524Y-88218588D01*
X97826384Y-88190680D01*
X97825000Y-88162500D01*
X97825000Y-87487500D01*
X97826384Y-87459320D01*
X97830524Y-87431412D01*
X97837380Y-87404043D01*
X97846885Y-87377479D01*
X97858948Y-87351973D01*
X97873452Y-87327774D01*
X97890259Y-87305112D01*
X97909207Y-87284207D01*
X97930112Y-87265259D01*
X97952774Y-87248452D01*
X97976973Y-87233948D01*
X98002479Y-87221885D01*
X98029043Y-87212380D01*
X98056412Y-87205524D01*
X98084320Y-87201384D01*
X98112500Y-87200000D01*
X98687500Y-87200000D01*
X98715680Y-87201384D01*
G37*
%TD*%
%TO.C,R1*%
G36*
X98880680Y-72576384D02*
G01*
X98908588Y-72580524D01*
X98935957Y-72587380D01*
X98962521Y-72596885D01*
X98988027Y-72608948D01*
X99012226Y-72623452D01*
X99034888Y-72640259D01*
X99055793Y-72659207D01*
X99074741Y-72680112D01*
X99091548Y-72702774D01*
X99106052Y-72726973D01*
X99118115Y-72752479D01*
X99127620Y-72779043D01*
X99134476Y-72806412D01*
X99138616Y-72834320D01*
X99140000Y-72862500D01*
X99140000Y-73437500D01*
X99138616Y-73465680D01*
X99134476Y-73493588D01*
X99127620Y-73520957D01*
X99118115Y-73547521D01*
X99106052Y-73573027D01*
X99091548Y-73597226D01*
X99074741Y-73619888D01*
X99055793Y-73640793D01*
X99034888Y-73659741D01*
X99012226Y-73676548D01*
X98988027Y-73691052D01*
X98962521Y-73703115D01*
X98935957Y-73712620D01*
X98908588Y-73719476D01*
X98880680Y-73723616D01*
X98852500Y-73725000D01*
X98177500Y-73725000D01*
X98149320Y-73723616D01*
X98121412Y-73719476D01*
X98094043Y-73712620D01*
X98067479Y-73703115D01*
X98041973Y-73691052D01*
X98017774Y-73676548D01*
X97995112Y-73659741D01*
X97974207Y-73640793D01*
X97955259Y-73619888D01*
X97938452Y-73597226D01*
X97923948Y-73573027D01*
X97911885Y-73547521D01*
X97902380Y-73520957D01*
X97895524Y-73493588D01*
X97891384Y-73465680D01*
X97890000Y-73437500D01*
X97890000Y-72862500D01*
X97891384Y-72834320D01*
X97895524Y-72806412D01*
X97902380Y-72779043D01*
X97911885Y-72752479D01*
X97923948Y-72726973D01*
X97938452Y-72702774D01*
X97955259Y-72680112D01*
X97974207Y-72659207D01*
X97995112Y-72640259D01*
X98017774Y-72623452D01*
X98041973Y-72608948D01*
X98067479Y-72596885D01*
X98094043Y-72587380D01*
X98121412Y-72580524D01*
X98149320Y-72576384D01*
X98177500Y-72575000D01*
X98852500Y-72575000D01*
X98880680Y-72576384D01*
G37*
G36*
X100630680Y-72576384D02*
G01*
X100658588Y-72580524D01*
X100685957Y-72587380D01*
X100712521Y-72596885D01*
X100738027Y-72608948D01*
X100762226Y-72623452D01*
X100784888Y-72640259D01*
X100805793Y-72659207D01*
X100824741Y-72680112D01*
X100841548Y-72702774D01*
X100856052Y-72726973D01*
X100868115Y-72752479D01*
X100877620Y-72779043D01*
X100884476Y-72806412D01*
X100888616Y-72834320D01*
X100890000Y-72862500D01*
X100890000Y-73437500D01*
X100888616Y-73465680D01*
X100884476Y-73493588D01*
X100877620Y-73520957D01*
X100868115Y-73547521D01*
X100856052Y-73573027D01*
X100841548Y-73597226D01*
X100824741Y-73619888D01*
X100805793Y-73640793D01*
X100784888Y-73659741D01*
X100762226Y-73676548D01*
X100738027Y-73691052D01*
X100712521Y-73703115D01*
X100685957Y-73712620D01*
X100658588Y-73719476D01*
X100630680Y-73723616D01*
X100602500Y-73725000D01*
X99927500Y-73725000D01*
X99899320Y-73723616D01*
X99871412Y-73719476D01*
X99844043Y-73712620D01*
X99817479Y-73703115D01*
X99791973Y-73691052D01*
X99767774Y-73676548D01*
X99745112Y-73659741D01*
X99724207Y-73640793D01*
X99705259Y-73619888D01*
X99688452Y-73597226D01*
X99673948Y-73573027D01*
X99661885Y-73547521D01*
X99652380Y-73520957D01*
X99645524Y-73493588D01*
X99641384Y-73465680D01*
X99640000Y-73437500D01*
X99640000Y-72862500D01*
X99641384Y-72834320D01*
X99645524Y-72806412D01*
X99652380Y-72779043D01*
X99661885Y-72752479D01*
X99673948Y-72726973D01*
X99688452Y-72702774D01*
X99705259Y-72680112D01*
X99724207Y-72659207D01*
X99745112Y-72640259D01*
X99767774Y-72623452D01*
X99791973Y-72608948D01*
X99817479Y-72596885D01*
X99844043Y-72587380D01*
X99871412Y-72580524D01*
X99899320Y-72576384D01*
X99927500Y-72575000D01*
X100602500Y-72575000D01*
X100630680Y-72576384D01*
G37*
%TD*%
D21*
%TO.C,Q1*%
X105450000Y-91600000D03*
X105450000Y-96200000D03*
X105450000Y-93900000D03*
D22*
X111750000Y-93900000D03*
%TD*%
D10*
%TO.C,JP2*%
G36*
X104218079Y-69159509D02*
G01*
X104212388Y-69178268D01*
X104203147Y-69195557D01*
X104190711Y-69210711D01*
X104175557Y-69223147D01*
X104158268Y-69232388D01*
X104139509Y-69238079D01*
X104120000Y-69240000D01*
X102620000Y-69240000D01*
X102600491Y-69238079D01*
X102581732Y-69232388D01*
X102564443Y-69223147D01*
X102549289Y-69210711D01*
X102536853Y-69195557D01*
X102527612Y-69178268D01*
X102521921Y-69159509D01*
X102520000Y-69140000D01*
X102520000Y-68640000D01*
X102520602Y-68633886D01*
X102520602Y-68615466D01*
X102521084Y-68605663D01*
X102525894Y-68556832D01*
X102527333Y-68547127D01*
X102536905Y-68499002D01*
X102539290Y-68489481D01*
X102553534Y-68442526D01*
X102556840Y-68433288D01*
X102575617Y-68387955D01*
X102579814Y-68379081D01*
X102602945Y-68335808D01*
X102607988Y-68327393D01*
X102635248Y-68286594D01*
X102641095Y-68278710D01*
X102672223Y-68240781D01*
X102678813Y-68233510D01*
X102713510Y-68198813D01*
X102720781Y-68192223D01*
X102758710Y-68161095D01*
X102766594Y-68155248D01*
X102807393Y-68127988D01*
X102815808Y-68122945D01*
X102859081Y-68099814D01*
X102867955Y-68095617D01*
X102913288Y-68076840D01*
X102922526Y-68073534D01*
X102969481Y-68059290D01*
X102979002Y-68056905D01*
X103027127Y-68047333D01*
X103036832Y-68045894D01*
X103085663Y-68041084D01*
X103095466Y-68040602D01*
X103113886Y-68040602D01*
X103120000Y-68040000D01*
X103620000Y-68040000D01*
X103626114Y-68040602D01*
X103644534Y-68040602D01*
X103654337Y-68041084D01*
X103703168Y-68045894D01*
X103712873Y-68047333D01*
X103760998Y-68056905D01*
X103770519Y-68059290D01*
X103817474Y-68073534D01*
X103826712Y-68076840D01*
X103872045Y-68095617D01*
X103880919Y-68099814D01*
X103924192Y-68122945D01*
X103932607Y-68127988D01*
X103973406Y-68155248D01*
X103981290Y-68161095D01*
X104019219Y-68192223D01*
X104026490Y-68198813D01*
X104061187Y-68233510D01*
X104067777Y-68240781D01*
X104098905Y-68278710D01*
X104104752Y-68286594D01*
X104132012Y-68327393D01*
X104137055Y-68335808D01*
X104160186Y-68379081D01*
X104164383Y-68387955D01*
X104183160Y-68433288D01*
X104186466Y-68442526D01*
X104200710Y-68489481D01*
X104203095Y-68499002D01*
X104212667Y-68547127D01*
X104214106Y-68556832D01*
X104218916Y-68605663D01*
X104219398Y-68615466D01*
X104219398Y-68633886D01*
X104220000Y-68640000D01*
X104220000Y-69140000D01*
X104218079Y-69159509D01*
G37*
G36*
X104219398Y-69946114D02*
G01*
X104219398Y-69964534D01*
X104218916Y-69974337D01*
X104214106Y-70023168D01*
X104212667Y-70032873D01*
X104203095Y-70080998D01*
X104200710Y-70090519D01*
X104186466Y-70137474D01*
X104183160Y-70146712D01*
X104164383Y-70192045D01*
X104160186Y-70200919D01*
X104137055Y-70244192D01*
X104132012Y-70252607D01*
X104104752Y-70293406D01*
X104098905Y-70301290D01*
X104067777Y-70339219D01*
X104061187Y-70346490D01*
X104026490Y-70381187D01*
X104019219Y-70387777D01*
X103981290Y-70418905D01*
X103973406Y-70424752D01*
X103932607Y-70452012D01*
X103924192Y-70457055D01*
X103880919Y-70480186D01*
X103872045Y-70484383D01*
X103826712Y-70503160D01*
X103817474Y-70506466D01*
X103770519Y-70520710D01*
X103760998Y-70523095D01*
X103712873Y-70532667D01*
X103703168Y-70534106D01*
X103654337Y-70538916D01*
X103644534Y-70539398D01*
X103626114Y-70539398D01*
X103620000Y-70540000D01*
X103120000Y-70540000D01*
X103113886Y-70539398D01*
X103095466Y-70539398D01*
X103085663Y-70538916D01*
X103036832Y-70534106D01*
X103027127Y-70532667D01*
X102979002Y-70523095D01*
X102969481Y-70520710D01*
X102922526Y-70506466D01*
X102913288Y-70503160D01*
X102867955Y-70484383D01*
X102859081Y-70480186D01*
X102815808Y-70457055D01*
X102807393Y-70452012D01*
X102766594Y-70424752D01*
X102758710Y-70418905D01*
X102720781Y-70387777D01*
X102713510Y-70381187D01*
X102678813Y-70346490D01*
X102672223Y-70339219D01*
X102641095Y-70301290D01*
X102635248Y-70293406D01*
X102607988Y-70252607D01*
X102602945Y-70244192D01*
X102579814Y-70200919D01*
X102575617Y-70192045D01*
X102556840Y-70146712D01*
X102553534Y-70137474D01*
X102539290Y-70090519D01*
X102536905Y-70080998D01*
X102527333Y-70032873D01*
X102525894Y-70023168D01*
X102521084Y-69974337D01*
X102520602Y-69964534D01*
X102520602Y-69946114D01*
X102520000Y-69940000D01*
X102520000Y-69440000D01*
X102521921Y-69420491D01*
X102527612Y-69401732D01*
X102536853Y-69384443D01*
X102549289Y-69369289D01*
X102564443Y-69356853D01*
X102581732Y-69347612D01*
X102600491Y-69341921D01*
X102620000Y-69340000D01*
X104120000Y-69340000D01*
X104139509Y-69341921D01*
X104158268Y-69347612D01*
X104175557Y-69356853D01*
X104190711Y-69369289D01*
X104203147Y-69384443D01*
X104212388Y-69401732D01*
X104218079Y-69420491D01*
X104220000Y-69440000D01*
X104220000Y-69940000D01*
X104219398Y-69946114D01*
G37*
%TD*%
%TO.C,JP1*%
G36*
X128848079Y-69519509D02*
G01*
X128842388Y-69538268D01*
X128833147Y-69555557D01*
X128820711Y-69570711D01*
X128805557Y-69583147D01*
X128788268Y-69592388D01*
X128769509Y-69598079D01*
X128750000Y-69600000D01*
X127250000Y-69600000D01*
X127230491Y-69598079D01*
X127211732Y-69592388D01*
X127194443Y-69583147D01*
X127179289Y-69570711D01*
X127166853Y-69555557D01*
X127157612Y-69538268D01*
X127151921Y-69519509D01*
X127150000Y-69500000D01*
X127150000Y-69000000D01*
X127150602Y-68993886D01*
X127150602Y-68975466D01*
X127151084Y-68965663D01*
X127155894Y-68916832D01*
X127157333Y-68907127D01*
X127166905Y-68859002D01*
X127169290Y-68849481D01*
X127183534Y-68802526D01*
X127186840Y-68793288D01*
X127205617Y-68747955D01*
X127209814Y-68739081D01*
X127232945Y-68695808D01*
X127237988Y-68687393D01*
X127265248Y-68646594D01*
X127271095Y-68638710D01*
X127302223Y-68600781D01*
X127308813Y-68593510D01*
X127343510Y-68558813D01*
X127350781Y-68552223D01*
X127388710Y-68521095D01*
X127396594Y-68515248D01*
X127437393Y-68487988D01*
X127445808Y-68482945D01*
X127489081Y-68459814D01*
X127497955Y-68455617D01*
X127543288Y-68436840D01*
X127552526Y-68433534D01*
X127599481Y-68419290D01*
X127609002Y-68416905D01*
X127657127Y-68407333D01*
X127666832Y-68405894D01*
X127715663Y-68401084D01*
X127725466Y-68400602D01*
X127743886Y-68400602D01*
X127750000Y-68400000D01*
X128250000Y-68400000D01*
X128256114Y-68400602D01*
X128274534Y-68400602D01*
X128284337Y-68401084D01*
X128333168Y-68405894D01*
X128342873Y-68407333D01*
X128390998Y-68416905D01*
X128400519Y-68419290D01*
X128447474Y-68433534D01*
X128456712Y-68436840D01*
X128502045Y-68455617D01*
X128510919Y-68459814D01*
X128554192Y-68482945D01*
X128562607Y-68487988D01*
X128603406Y-68515248D01*
X128611290Y-68521095D01*
X128649219Y-68552223D01*
X128656490Y-68558813D01*
X128691187Y-68593510D01*
X128697777Y-68600781D01*
X128728905Y-68638710D01*
X128734752Y-68646594D01*
X128762012Y-68687393D01*
X128767055Y-68695808D01*
X128790186Y-68739081D01*
X128794383Y-68747955D01*
X128813160Y-68793288D01*
X128816466Y-68802526D01*
X128830710Y-68849481D01*
X128833095Y-68859002D01*
X128842667Y-68907127D01*
X128844106Y-68916832D01*
X128848916Y-68965663D01*
X128849398Y-68975466D01*
X128849398Y-68993886D01*
X128850000Y-69000000D01*
X128850000Y-69500000D01*
X128848079Y-69519509D01*
G37*
G36*
X128849398Y-70306114D02*
G01*
X128849398Y-70324534D01*
X128848916Y-70334337D01*
X128844106Y-70383168D01*
X128842667Y-70392873D01*
X128833095Y-70440998D01*
X128830710Y-70450519D01*
X128816466Y-70497474D01*
X128813160Y-70506712D01*
X128794383Y-70552045D01*
X128790186Y-70560919D01*
X128767055Y-70604192D01*
X128762012Y-70612607D01*
X128734752Y-70653406D01*
X128728905Y-70661290D01*
X128697777Y-70699219D01*
X128691187Y-70706490D01*
X128656490Y-70741187D01*
X128649219Y-70747777D01*
X128611290Y-70778905D01*
X128603406Y-70784752D01*
X128562607Y-70812012D01*
X128554192Y-70817055D01*
X128510919Y-70840186D01*
X128502045Y-70844383D01*
X128456712Y-70863160D01*
X128447474Y-70866466D01*
X128400519Y-70880710D01*
X128390998Y-70883095D01*
X128342873Y-70892667D01*
X128333168Y-70894106D01*
X128284337Y-70898916D01*
X128274534Y-70899398D01*
X128256114Y-70899398D01*
X128250000Y-70900000D01*
X127750000Y-70900000D01*
X127743886Y-70899398D01*
X127725466Y-70899398D01*
X127715663Y-70898916D01*
X127666832Y-70894106D01*
X127657127Y-70892667D01*
X127609002Y-70883095D01*
X127599481Y-70880710D01*
X127552526Y-70866466D01*
X127543288Y-70863160D01*
X127497955Y-70844383D01*
X127489081Y-70840186D01*
X127445808Y-70817055D01*
X127437393Y-70812012D01*
X127396594Y-70784752D01*
X127388710Y-70778905D01*
X127350781Y-70747777D01*
X127343510Y-70741187D01*
X127308813Y-70706490D01*
X127302223Y-70699219D01*
X127271095Y-70661290D01*
X127265248Y-70653406D01*
X127237988Y-70612607D01*
X127232945Y-70604192D01*
X127209814Y-70560919D01*
X127205617Y-70552045D01*
X127186840Y-70506712D01*
X127183534Y-70497474D01*
X127169290Y-70450519D01*
X127166905Y-70440998D01*
X127157333Y-70392873D01*
X127155894Y-70383168D01*
X127151084Y-70334337D01*
X127150602Y-70324534D01*
X127150602Y-70306114D01*
X127150000Y-70300000D01*
X127150000Y-69800000D01*
X127151921Y-69780491D01*
X127157612Y-69761732D01*
X127166853Y-69744443D01*
X127179289Y-69729289D01*
X127194443Y-69716853D01*
X127211732Y-69707612D01*
X127230491Y-69701921D01*
X127250000Y-69700000D01*
X128750000Y-69700000D01*
X128769509Y-69701921D01*
X128788268Y-69707612D01*
X128805557Y-69716853D01*
X128820711Y-69729289D01*
X128833147Y-69744443D01*
X128842388Y-69761732D01*
X128848079Y-69780491D01*
X128850000Y-69800000D01*
X128850000Y-70300000D01*
X128849398Y-70306114D01*
G37*
%TD*%
%TO.C,D2*%
G36*
X87368229Y-111606264D02*
G01*
X87393711Y-111610044D01*
X87418700Y-111616303D01*
X87442954Y-111624982D01*
X87466242Y-111635996D01*
X87488337Y-111649239D01*
X87509028Y-111664585D01*
X87528116Y-111681884D01*
X87545415Y-111700972D01*
X87560761Y-111721663D01*
X87574004Y-111743758D01*
X87585018Y-111767046D01*
X87593697Y-111791300D01*
X87599956Y-111816289D01*
X87603736Y-111841771D01*
X87605000Y-111867500D01*
X87605000Y-112767500D01*
X87603736Y-112793229D01*
X87599956Y-112818711D01*
X87593697Y-112843700D01*
X87585018Y-112867954D01*
X87574004Y-112891242D01*
X87560761Y-112913337D01*
X87545415Y-112934028D01*
X87528116Y-112953116D01*
X87509028Y-112970415D01*
X87488337Y-112985761D01*
X87466242Y-112999004D01*
X87442954Y-113010018D01*
X87418700Y-113018697D01*
X87393711Y-113024956D01*
X87368229Y-113028736D01*
X87342500Y-113030000D01*
X86817500Y-113030000D01*
X86791771Y-113028736D01*
X86766289Y-113024956D01*
X86741300Y-113018697D01*
X86717046Y-113010018D01*
X86693758Y-112999004D01*
X86671663Y-112985761D01*
X86650972Y-112970415D01*
X86631884Y-112953116D01*
X86614585Y-112934028D01*
X86599239Y-112913337D01*
X86585996Y-112891242D01*
X86574982Y-112867954D01*
X86566303Y-112843700D01*
X86560044Y-112818711D01*
X86556264Y-112793229D01*
X86555000Y-112767500D01*
X86555000Y-111867500D01*
X86556264Y-111841771D01*
X86560044Y-111816289D01*
X86566303Y-111791300D01*
X86574982Y-111767046D01*
X86585996Y-111743758D01*
X86599239Y-111721663D01*
X86614585Y-111700972D01*
X86631884Y-111681884D01*
X86650972Y-111664585D01*
X86671663Y-111649239D01*
X86693758Y-111635996D01*
X86717046Y-111624982D01*
X86741300Y-111616303D01*
X86766289Y-111610044D01*
X86791771Y-111606264D01*
X86817500Y-111605000D01*
X87342500Y-111605000D01*
X87368229Y-111606264D01*
G37*
G36*
X87368229Y-113231264D02*
G01*
X87393711Y-113235044D01*
X87418700Y-113241303D01*
X87442954Y-113249982D01*
X87466242Y-113260996D01*
X87488337Y-113274239D01*
X87509028Y-113289585D01*
X87528116Y-113306884D01*
X87545415Y-113325972D01*
X87560761Y-113346663D01*
X87574004Y-113368758D01*
X87585018Y-113392046D01*
X87593697Y-113416300D01*
X87599956Y-113441289D01*
X87603736Y-113466771D01*
X87605000Y-113492500D01*
X87605000Y-114392500D01*
X87603736Y-114418229D01*
X87599956Y-114443711D01*
X87593697Y-114468700D01*
X87585018Y-114492954D01*
X87574004Y-114516242D01*
X87560761Y-114538337D01*
X87545415Y-114559028D01*
X87528116Y-114578116D01*
X87509028Y-114595415D01*
X87488337Y-114610761D01*
X87466242Y-114624004D01*
X87442954Y-114635018D01*
X87418700Y-114643697D01*
X87393711Y-114649956D01*
X87368229Y-114653736D01*
X87342500Y-114655000D01*
X86817500Y-114655000D01*
X86791771Y-114653736D01*
X86766289Y-114649956D01*
X86741300Y-114643697D01*
X86717046Y-114635018D01*
X86693758Y-114624004D01*
X86671663Y-114610761D01*
X86650972Y-114595415D01*
X86631884Y-114578116D01*
X86614585Y-114559028D01*
X86599239Y-114538337D01*
X86585996Y-114516242D01*
X86574982Y-114492954D01*
X86566303Y-114468700D01*
X86560044Y-114443711D01*
X86556264Y-114418229D01*
X86555000Y-114392500D01*
X86555000Y-113492500D01*
X86556264Y-113466771D01*
X86560044Y-113441289D01*
X86566303Y-113416300D01*
X86574982Y-113392046D01*
X86585996Y-113368758D01*
X86599239Y-113346663D01*
X86614585Y-113325972D01*
X86631884Y-113306884D01*
X86650972Y-113289585D01*
X86671663Y-113274239D01*
X86693758Y-113260996D01*
X86717046Y-113249982D01*
X86741300Y-113241303D01*
X86766289Y-113235044D01*
X86791771Y-113231264D01*
X86817500Y-113230000D01*
X87342500Y-113230000D01*
X87368229Y-113231264D01*
G37*
%TD*%
%TO.C,D1*%
G36*
X89358229Y-111566264D02*
G01*
X89383711Y-111570044D01*
X89408700Y-111576303D01*
X89432954Y-111584982D01*
X89456242Y-111595996D01*
X89478337Y-111609239D01*
X89499028Y-111624585D01*
X89518116Y-111641884D01*
X89535415Y-111660972D01*
X89550761Y-111681663D01*
X89564004Y-111703758D01*
X89575018Y-111727046D01*
X89583697Y-111751300D01*
X89589956Y-111776289D01*
X89593736Y-111801771D01*
X89595000Y-111827500D01*
X89595000Y-112727500D01*
X89593736Y-112753229D01*
X89589956Y-112778711D01*
X89583697Y-112803700D01*
X89575018Y-112827954D01*
X89564004Y-112851242D01*
X89550761Y-112873337D01*
X89535415Y-112894028D01*
X89518116Y-112913116D01*
X89499028Y-112930415D01*
X89478337Y-112945761D01*
X89456242Y-112959004D01*
X89432954Y-112970018D01*
X89408700Y-112978697D01*
X89383711Y-112984956D01*
X89358229Y-112988736D01*
X89332500Y-112990000D01*
X88807500Y-112990000D01*
X88781771Y-112988736D01*
X88756289Y-112984956D01*
X88731300Y-112978697D01*
X88707046Y-112970018D01*
X88683758Y-112959004D01*
X88661663Y-112945761D01*
X88640972Y-112930415D01*
X88621884Y-112913116D01*
X88604585Y-112894028D01*
X88589239Y-112873337D01*
X88575996Y-112851242D01*
X88564982Y-112827954D01*
X88556303Y-112803700D01*
X88550044Y-112778711D01*
X88546264Y-112753229D01*
X88545000Y-112727500D01*
X88545000Y-111827500D01*
X88546264Y-111801771D01*
X88550044Y-111776289D01*
X88556303Y-111751300D01*
X88564982Y-111727046D01*
X88575996Y-111703758D01*
X88589239Y-111681663D01*
X88604585Y-111660972D01*
X88621884Y-111641884D01*
X88640972Y-111624585D01*
X88661663Y-111609239D01*
X88683758Y-111595996D01*
X88707046Y-111584982D01*
X88731300Y-111576303D01*
X88756289Y-111570044D01*
X88781771Y-111566264D01*
X88807500Y-111565000D01*
X89332500Y-111565000D01*
X89358229Y-111566264D01*
G37*
G36*
X89358229Y-113191264D02*
G01*
X89383711Y-113195044D01*
X89408700Y-113201303D01*
X89432954Y-113209982D01*
X89456242Y-113220996D01*
X89478337Y-113234239D01*
X89499028Y-113249585D01*
X89518116Y-113266884D01*
X89535415Y-113285972D01*
X89550761Y-113306663D01*
X89564004Y-113328758D01*
X89575018Y-113352046D01*
X89583697Y-113376300D01*
X89589956Y-113401289D01*
X89593736Y-113426771D01*
X89595000Y-113452500D01*
X89595000Y-114352500D01*
X89593736Y-114378229D01*
X89589956Y-114403711D01*
X89583697Y-114428700D01*
X89575018Y-114452954D01*
X89564004Y-114476242D01*
X89550761Y-114498337D01*
X89535415Y-114519028D01*
X89518116Y-114538116D01*
X89499028Y-114555415D01*
X89478337Y-114570761D01*
X89456242Y-114584004D01*
X89432954Y-114595018D01*
X89408700Y-114603697D01*
X89383711Y-114609956D01*
X89358229Y-114613736D01*
X89332500Y-114615000D01*
X88807500Y-114615000D01*
X88781771Y-114613736D01*
X88756289Y-114609956D01*
X88731300Y-114603697D01*
X88707046Y-114595018D01*
X88683758Y-114584004D01*
X88661663Y-114570761D01*
X88640972Y-114555415D01*
X88621884Y-114538116D01*
X88604585Y-114519028D01*
X88589239Y-114498337D01*
X88575996Y-114476242D01*
X88564982Y-114452954D01*
X88556303Y-114428700D01*
X88550044Y-114403711D01*
X88546264Y-114378229D01*
X88545000Y-114352500D01*
X88545000Y-113452500D01*
X88546264Y-113426771D01*
X88550044Y-113401289D01*
X88556303Y-113376300D01*
X88564982Y-113352046D01*
X88575996Y-113328758D01*
X88589239Y-113306663D01*
X88604585Y-113285972D01*
X88621884Y-113266884D01*
X88640972Y-113249585D01*
X88661663Y-113234239D01*
X88683758Y-113220996D01*
X88707046Y-113209982D01*
X88731300Y-113201303D01*
X88756289Y-113195044D01*
X88781771Y-113191264D01*
X88807500Y-113190000D01*
X89332500Y-113190000D01*
X89358229Y-113191264D01*
G37*
%TD*%
%TO.C,C2*%
G36*
X117476317Y-88561354D02*
G01*
X117503619Y-88565404D01*
X117530393Y-88572111D01*
X117556380Y-88581409D01*
X117581330Y-88593210D01*
X117605004Y-88607399D01*
X117627173Y-88623841D01*
X117647624Y-88642376D01*
X117666159Y-88662827D01*
X117682601Y-88684996D01*
X117696790Y-88708670D01*
X117708591Y-88733620D01*
X117717889Y-88759607D01*
X117724596Y-88786381D01*
X117728646Y-88813683D01*
X117730000Y-88841250D01*
X117730000Y-91978750D01*
X117728646Y-92006317D01*
X117724596Y-92033619D01*
X117717889Y-92060393D01*
X117708591Y-92086380D01*
X117696790Y-92111330D01*
X117682601Y-92135004D01*
X117666159Y-92157173D01*
X117647624Y-92177624D01*
X117627173Y-92196159D01*
X117605004Y-92212601D01*
X117581330Y-92226790D01*
X117556380Y-92238591D01*
X117530393Y-92247889D01*
X117503619Y-92254596D01*
X117476317Y-92258646D01*
X117448750Y-92260000D01*
X116211250Y-92260000D01*
X116183683Y-92258646D01*
X116156381Y-92254596D01*
X116129607Y-92247889D01*
X116103620Y-92238591D01*
X116078670Y-92226790D01*
X116054996Y-92212601D01*
X116032827Y-92196159D01*
X116012376Y-92177624D01*
X115993841Y-92157173D01*
X115977399Y-92135004D01*
X115963210Y-92111330D01*
X115951409Y-92086380D01*
X115942111Y-92060393D01*
X115935404Y-92033619D01*
X115931354Y-92006317D01*
X115930000Y-91978750D01*
X115930000Y-88841250D01*
X115931354Y-88813683D01*
X115935404Y-88786381D01*
X115942111Y-88759607D01*
X115951409Y-88733620D01*
X115963210Y-88708670D01*
X115977399Y-88684996D01*
X115993841Y-88662827D01*
X116012376Y-88642376D01*
X116032827Y-88623841D01*
X116054996Y-88607399D01*
X116078670Y-88593210D01*
X116103620Y-88581409D01*
X116129607Y-88572111D01*
X116156381Y-88565404D01*
X116183683Y-88561354D01*
X116211250Y-88560000D01*
X117448750Y-88560000D01*
X117476317Y-88561354D01*
G37*
G36*
X117476317Y-83161354D02*
G01*
X117503619Y-83165404D01*
X117530393Y-83172111D01*
X117556380Y-83181409D01*
X117581330Y-83193210D01*
X117605004Y-83207399D01*
X117627173Y-83223841D01*
X117647624Y-83242376D01*
X117666159Y-83262827D01*
X117682601Y-83284996D01*
X117696790Y-83308670D01*
X117708591Y-83333620D01*
X117717889Y-83359607D01*
X117724596Y-83386381D01*
X117728646Y-83413683D01*
X117730000Y-83441250D01*
X117730000Y-86578750D01*
X117728646Y-86606317D01*
X117724596Y-86633619D01*
X117717889Y-86660393D01*
X117708591Y-86686380D01*
X117696790Y-86711330D01*
X117682601Y-86735004D01*
X117666159Y-86757173D01*
X117647624Y-86777624D01*
X117627173Y-86796159D01*
X117605004Y-86812601D01*
X117581330Y-86826790D01*
X117556380Y-86838591D01*
X117530393Y-86847889D01*
X117503619Y-86854596D01*
X117476317Y-86858646D01*
X117448750Y-86860000D01*
X116211250Y-86860000D01*
X116183683Y-86858646D01*
X116156381Y-86854596D01*
X116129607Y-86847889D01*
X116103620Y-86838591D01*
X116078670Y-86826790D01*
X116054996Y-86812601D01*
X116032827Y-86796159D01*
X116012376Y-86777624D01*
X115993841Y-86757173D01*
X115977399Y-86735004D01*
X115963210Y-86711330D01*
X115951409Y-86686380D01*
X115942111Y-86660393D01*
X115935404Y-86633619D01*
X115931354Y-86606317D01*
X115930000Y-86578750D01*
X115930000Y-83441250D01*
X115931354Y-83413683D01*
X115935404Y-83386381D01*
X115942111Y-83359607D01*
X115951409Y-83333620D01*
X115963210Y-83308670D01*
X115977399Y-83284996D01*
X115993841Y-83262827D01*
X116012376Y-83242376D01*
X116032827Y-83223841D01*
X116054996Y-83207399D01*
X116078670Y-83193210D01*
X116103620Y-83181409D01*
X116129607Y-83172111D01*
X116156381Y-83165404D01*
X116183683Y-83161354D01*
X116211250Y-83160000D01*
X117448750Y-83160000D01*
X117476317Y-83161354D01*
G37*
%TD*%
%TO.C,C1*%
G36*
X121390680Y-73066384D02*
G01*
X121418588Y-73070524D01*
X121445957Y-73077380D01*
X121472521Y-73086885D01*
X121498027Y-73098948D01*
X121522226Y-73113452D01*
X121544888Y-73130259D01*
X121565793Y-73149207D01*
X121584741Y-73170112D01*
X121601548Y-73192774D01*
X121616052Y-73216973D01*
X121628115Y-73242479D01*
X121637620Y-73269043D01*
X121644476Y-73296412D01*
X121648616Y-73324320D01*
X121650000Y-73352500D01*
X121650000Y-73927500D01*
X121648616Y-73955680D01*
X121644476Y-73983588D01*
X121637620Y-74010957D01*
X121628115Y-74037521D01*
X121616052Y-74063027D01*
X121601548Y-74087226D01*
X121584741Y-74109888D01*
X121565793Y-74130793D01*
X121544888Y-74149741D01*
X121522226Y-74166548D01*
X121498027Y-74181052D01*
X121472521Y-74193115D01*
X121445957Y-74202620D01*
X121418588Y-74209476D01*
X121390680Y-74213616D01*
X121362500Y-74215000D01*
X120687500Y-74215000D01*
X120659320Y-74213616D01*
X120631412Y-74209476D01*
X120604043Y-74202620D01*
X120577479Y-74193115D01*
X120551973Y-74181052D01*
X120527774Y-74166548D01*
X120505112Y-74149741D01*
X120484207Y-74130793D01*
X120465259Y-74109888D01*
X120448452Y-74087226D01*
X120433948Y-74063027D01*
X120421885Y-74037521D01*
X120412380Y-74010957D01*
X120405524Y-73983588D01*
X120401384Y-73955680D01*
X120400000Y-73927500D01*
X120400000Y-73352500D01*
X120401384Y-73324320D01*
X120405524Y-73296412D01*
X120412380Y-73269043D01*
X120421885Y-73242479D01*
X120433948Y-73216973D01*
X120448452Y-73192774D01*
X120465259Y-73170112D01*
X120484207Y-73149207D01*
X120505112Y-73130259D01*
X120527774Y-73113452D01*
X120551973Y-73098948D01*
X120577479Y-73086885D01*
X120604043Y-73077380D01*
X120631412Y-73070524D01*
X120659320Y-73066384D01*
X120687500Y-73065000D01*
X121362500Y-73065000D01*
X121390680Y-73066384D01*
G37*
G36*
X119640680Y-73066384D02*
G01*
X119668588Y-73070524D01*
X119695957Y-73077380D01*
X119722521Y-73086885D01*
X119748027Y-73098948D01*
X119772226Y-73113452D01*
X119794888Y-73130259D01*
X119815793Y-73149207D01*
X119834741Y-73170112D01*
X119851548Y-73192774D01*
X119866052Y-73216973D01*
X119878115Y-73242479D01*
X119887620Y-73269043D01*
X119894476Y-73296412D01*
X119898616Y-73324320D01*
X119900000Y-73352500D01*
X119900000Y-73927500D01*
X119898616Y-73955680D01*
X119894476Y-73983588D01*
X119887620Y-74010957D01*
X119878115Y-74037521D01*
X119866052Y-74063027D01*
X119851548Y-74087226D01*
X119834741Y-74109888D01*
X119815793Y-74130793D01*
X119794888Y-74149741D01*
X119772226Y-74166548D01*
X119748027Y-74181052D01*
X119722521Y-74193115D01*
X119695957Y-74202620D01*
X119668588Y-74209476D01*
X119640680Y-74213616D01*
X119612500Y-74215000D01*
X118937500Y-74215000D01*
X118909320Y-74213616D01*
X118881412Y-74209476D01*
X118854043Y-74202620D01*
X118827479Y-74193115D01*
X118801973Y-74181052D01*
X118777774Y-74166548D01*
X118755112Y-74149741D01*
X118734207Y-74130793D01*
X118715259Y-74109888D01*
X118698452Y-74087226D01*
X118683948Y-74063027D01*
X118671885Y-74037521D01*
X118662380Y-74010957D01*
X118655524Y-73983588D01*
X118651384Y-73955680D01*
X118650000Y-73927500D01*
X118650000Y-73352500D01*
X118651384Y-73324320D01*
X118655524Y-73296412D01*
X118662380Y-73269043D01*
X118671885Y-73242479D01*
X118683948Y-73216973D01*
X118698452Y-73192774D01*
X118715259Y-73170112D01*
X118734207Y-73149207D01*
X118755112Y-73130259D01*
X118777774Y-73113452D01*
X118801973Y-73098948D01*
X118827479Y-73086885D01*
X118854043Y-73077380D01*
X118881412Y-73070524D01*
X118909320Y-73066384D01*
X118937500Y-73065000D01*
X119612500Y-73065000D01*
X119640680Y-73066384D01*
G37*
%TD*%
D26*
%TO.C,TP2*%
X125400000Y-115400000D03*
%TD*%
%TO.C,TP1*%
X136100000Y-115300000D03*
%TD*%
D10*
%TO.C,U2*%
G36*
X118519603Y-71605963D02*
G01*
X118539018Y-71608843D01*
X118558057Y-71613612D01*
X118576537Y-71620224D01*
X118594279Y-71628616D01*
X118611114Y-71638706D01*
X118626879Y-71650398D01*
X118641421Y-71663579D01*
X118654602Y-71678121D01*
X118666294Y-71693886D01*
X118676384Y-71710721D01*
X118684776Y-71728463D01*
X118691388Y-71746943D01*
X118696157Y-71765982D01*
X118699037Y-71785397D01*
X118700000Y-71805000D01*
X118700000Y-72205000D01*
X118699037Y-72224603D01*
X118696157Y-72244018D01*
X118691388Y-72263057D01*
X118684776Y-72281537D01*
X118676384Y-72299279D01*
X118666294Y-72316114D01*
X118654602Y-72331879D01*
X118641421Y-72346421D01*
X118626879Y-72359602D01*
X118611114Y-72371294D01*
X118594279Y-72381384D01*
X118576537Y-72389776D01*
X118558057Y-72396388D01*
X118539018Y-72401157D01*
X118519603Y-72404037D01*
X118500000Y-72405000D01*
X116750000Y-72405000D01*
X116730397Y-72404037D01*
X116710982Y-72401157D01*
X116691943Y-72396388D01*
X116673463Y-72389776D01*
X116655721Y-72381384D01*
X116638886Y-72371294D01*
X116623121Y-72359602D01*
X116608579Y-72346421D01*
X116595398Y-72331879D01*
X116583706Y-72316114D01*
X116573616Y-72299279D01*
X116565224Y-72281537D01*
X116558612Y-72263057D01*
X116553843Y-72244018D01*
X116550963Y-72224603D01*
X116550000Y-72205000D01*
X116550000Y-71805000D01*
X116550963Y-71785397D01*
X116553843Y-71765982D01*
X116558612Y-71746943D01*
X116565224Y-71728463D01*
X116573616Y-71710721D01*
X116583706Y-71693886D01*
X116595398Y-71678121D01*
X116608579Y-71663579D01*
X116623121Y-71650398D01*
X116638886Y-71638706D01*
X116655721Y-71628616D01*
X116673463Y-71620224D01*
X116691943Y-71613612D01*
X116710982Y-71608843D01*
X116730397Y-71605963D01*
X116750000Y-71605000D01*
X118500000Y-71605000D01*
X118519603Y-71605963D01*
G37*
G36*
X118519603Y-70335963D02*
G01*
X118539018Y-70338843D01*
X118558057Y-70343612D01*
X118576537Y-70350224D01*
X118594279Y-70358616D01*
X118611114Y-70368706D01*
X118626879Y-70380398D01*
X118641421Y-70393579D01*
X118654602Y-70408121D01*
X118666294Y-70423886D01*
X118676384Y-70440721D01*
X118684776Y-70458463D01*
X118691388Y-70476943D01*
X118696157Y-70495982D01*
X118699037Y-70515397D01*
X118700000Y-70535000D01*
X118700000Y-70935000D01*
X118699037Y-70954603D01*
X118696157Y-70974018D01*
X118691388Y-70993057D01*
X118684776Y-71011537D01*
X118676384Y-71029279D01*
X118666294Y-71046114D01*
X118654602Y-71061879D01*
X118641421Y-71076421D01*
X118626879Y-71089602D01*
X118611114Y-71101294D01*
X118594279Y-71111384D01*
X118576537Y-71119776D01*
X118558057Y-71126388D01*
X118539018Y-71131157D01*
X118519603Y-71134037D01*
X118500000Y-71135000D01*
X116750000Y-71135000D01*
X116730397Y-71134037D01*
X116710982Y-71131157D01*
X116691943Y-71126388D01*
X116673463Y-71119776D01*
X116655721Y-71111384D01*
X116638886Y-71101294D01*
X116623121Y-71089602D01*
X116608579Y-71076421D01*
X116595398Y-71061879D01*
X116583706Y-71046114D01*
X116573616Y-71029279D01*
X116565224Y-71011537D01*
X116558612Y-70993057D01*
X116553843Y-70974018D01*
X116550963Y-70954603D01*
X116550000Y-70935000D01*
X116550000Y-70535000D01*
X116550963Y-70515397D01*
X116553843Y-70495982D01*
X116558612Y-70476943D01*
X116565224Y-70458463D01*
X116573616Y-70440721D01*
X116583706Y-70423886D01*
X116595398Y-70408121D01*
X116608579Y-70393579D01*
X116623121Y-70380398D01*
X116638886Y-70368706D01*
X116655721Y-70358616D01*
X116673463Y-70350224D01*
X116691943Y-70343612D01*
X116710982Y-70338843D01*
X116730397Y-70335963D01*
X116750000Y-70335000D01*
X118500000Y-70335000D01*
X118519603Y-70335963D01*
G37*
G36*
X118519603Y-69065963D02*
G01*
X118539018Y-69068843D01*
X118558057Y-69073612D01*
X118576537Y-69080224D01*
X118594279Y-69088616D01*
X118611114Y-69098706D01*
X118626879Y-69110398D01*
X118641421Y-69123579D01*
X118654602Y-69138121D01*
X118666294Y-69153886D01*
X118676384Y-69170721D01*
X118684776Y-69188463D01*
X118691388Y-69206943D01*
X118696157Y-69225982D01*
X118699037Y-69245397D01*
X118700000Y-69265000D01*
X118700000Y-69665000D01*
X118699037Y-69684603D01*
X118696157Y-69704018D01*
X118691388Y-69723057D01*
X118684776Y-69741537D01*
X118676384Y-69759279D01*
X118666294Y-69776114D01*
X118654602Y-69791879D01*
X118641421Y-69806421D01*
X118626879Y-69819602D01*
X118611114Y-69831294D01*
X118594279Y-69841384D01*
X118576537Y-69849776D01*
X118558057Y-69856388D01*
X118539018Y-69861157D01*
X118519603Y-69864037D01*
X118500000Y-69865000D01*
X116750000Y-69865000D01*
X116730397Y-69864037D01*
X116710982Y-69861157D01*
X116691943Y-69856388D01*
X116673463Y-69849776D01*
X116655721Y-69841384D01*
X116638886Y-69831294D01*
X116623121Y-69819602D01*
X116608579Y-69806421D01*
X116595398Y-69791879D01*
X116583706Y-69776114D01*
X116573616Y-69759279D01*
X116565224Y-69741537D01*
X116558612Y-69723057D01*
X116553843Y-69704018D01*
X116550963Y-69684603D01*
X116550000Y-69665000D01*
X116550000Y-69265000D01*
X116550963Y-69245397D01*
X116553843Y-69225982D01*
X116558612Y-69206943D01*
X116565224Y-69188463D01*
X116573616Y-69170721D01*
X116583706Y-69153886D01*
X116595398Y-69138121D01*
X116608579Y-69123579D01*
X116623121Y-69110398D01*
X116638886Y-69098706D01*
X116655721Y-69088616D01*
X116673463Y-69080224D01*
X116691943Y-69073612D01*
X116710982Y-69068843D01*
X116730397Y-69065963D01*
X116750000Y-69065000D01*
X118500000Y-69065000D01*
X118519603Y-69065963D01*
G37*
G36*
X118519603Y-67795963D02*
G01*
X118539018Y-67798843D01*
X118558057Y-67803612D01*
X118576537Y-67810224D01*
X118594279Y-67818616D01*
X118611114Y-67828706D01*
X118626879Y-67840398D01*
X118641421Y-67853579D01*
X118654602Y-67868121D01*
X118666294Y-67883886D01*
X118676384Y-67900721D01*
X118684776Y-67918463D01*
X118691388Y-67936943D01*
X118696157Y-67955982D01*
X118699037Y-67975397D01*
X118700000Y-67995000D01*
X118700000Y-68395000D01*
X118699037Y-68414603D01*
X118696157Y-68434018D01*
X118691388Y-68453057D01*
X118684776Y-68471537D01*
X118676384Y-68489279D01*
X118666294Y-68506114D01*
X118654602Y-68521879D01*
X118641421Y-68536421D01*
X118626879Y-68549602D01*
X118611114Y-68561294D01*
X118594279Y-68571384D01*
X118576537Y-68579776D01*
X118558057Y-68586388D01*
X118539018Y-68591157D01*
X118519603Y-68594037D01*
X118500000Y-68595000D01*
X116750000Y-68595000D01*
X116730397Y-68594037D01*
X116710982Y-68591157D01*
X116691943Y-68586388D01*
X116673463Y-68579776D01*
X116655721Y-68571384D01*
X116638886Y-68561294D01*
X116623121Y-68549602D01*
X116608579Y-68536421D01*
X116595398Y-68521879D01*
X116583706Y-68506114D01*
X116573616Y-68489279D01*
X116565224Y-68471537D01*
X116558612Y-68453057D01*
X116553843Y-68434018D01*
X116550963Y-68414603D01*
X116550000Y-68395000D01*
X116550000Y-67995000D01*
X116550963Y-67975397D01*
X116553843Y-67955982D01*
X116558612Y-67936943D01*
X116565224Y-67918463D01*
X116573616Y-67900721D01*
X116583706Y-67883886D01*
X116595398Y-67868121D01*
X116608579Y-67853579D01*
X116623121Y-67840398D01*
X116638886Y-67828706D01*
X116655721Y-67818616D01*
X116673463Y-67810224D01*
X116691943Y-67803612D01*
X116710982Y-67798843D01*
X116730397Y-67795963D01*
X116750000Y-67795000D01*
X118500000Y-67795000D01*
X118519603Y-67795963D01*
G37*
G36*
X123469603Y-67795963D02*
G01*
X123489018Y-67798843D01*
X123508057Y-67803612D01*
X123526537Y-67810224D01*
X123544279Y-67818616D01*
X123561114Y-67828706D01*
X123576879Y-67840398D01*
X123591421Y-67853579D01*
X123604602Y-67868121D01*
X123616294Y-67883886D01*
X123626384Y-67900721D01*
X123634776Y-67918463D01*
X123641388Y-67936943D01*
X123646157Y-67955982D01*
X123649037Y-67975397D01*
X123650000Y-67995000D01*
X123650000Y-68395000D01*
X123649037Y-68414603D01*
X123646157Y-68434018D01*
X123641388Y-68453057D01*
X123634776Y-68471537D01*
X123626384Y-68489279D01*
X123616294Y-68506114D01*
X123604602Y-68521879D01*
X123591421Y-68536421D01*
X123576879Y-68549602D01*
X123561114Y-68561294D01*
X123544279Y-68571384D01*
X123526537Y-68579776D01*
X123508057Y-68586388D01*
X123489018Y-68591157D01*
X123469603Y-68594037D01*
X123450000Y-68595000D01*
X121700000Y-68595000D01*
X121680397Y-68594037D01*
X121660982Y-68591157D01*
X121641943Y-68586388D01*
X121623463Y-68579776D01*
X121605721Y-68571384D01*
X121588886Y-68561294D01*
X121573121Y-68549602D01*
X121558579Y-68536421D01*
X121545398Y-68521879D01*
X121533706Y-68506114D01*
X121523616Y-68489279D01*
X121515224Y-68471537D01*
X121508612Y-68453057D01*
X121503843Y-68434018D01*
X121500963Y-68414603D01*
X121500000Y-68395000D01*
X121500000Y-67995000D01*
X121500963Y-67975397D01*
X121503843Y-67955982D01*
X121508612Y-67936943D01*
X121515224Y-67918463D01*
X121523616Y-67900721D01*
X121533706Y-67883886D01*
X121545398Y-67868121D01*
X121558579Y-67853579D01*
X121573121Y-67840398D01*
X121588886Y-67828706D01*
X121605721Y-67818616D01*
X121623463Y-67810224D01*
X121641943Y-67803612D01*
X121660982Y-67798843D01*
X121680397Y-67795963D01*
X121700000Y-67795000D01*
X123450000Y-67795000D01*
X123469603Y-67795963D01*
G37*
G36*
X123469603Y-69065963D02*
G01*
X123489018Y-69068843D01*
X123508057Y-69073612D01*
X123526537Y-69080224D01*
X123544279Y-69088616D01*
X123561114Y-69098706D01*
X123576879Y-69110398D01*
X123591421Y-69123579D01*
X123604602Y-69138121D01*
X123616294Y-69153886D01*
X123626384Y-69170721D01*
X123634776Y-69188463D01*
X123641388Y-69206943D01*
X123646157Y-69225982D01*
X123649037Y-69245397D01*
X123650000Y-69265000D01*
X123650000Y-69665000D01*
X123649037Y-69684603D01*
X123646157Y-69704018D01*
X123641388Y-69723057D01*
X123634776Y-69741537D01*
X123626384Y-69759279D01*
X123616294Y-69776114D01*
X123604602Y-69791879D01*
X123591421Y-69806421D01*
X123576879Y-69819602D01*
X123561114Y-69831294D01*
X123544279Y-69841384D01*
X123526537Y-69849776D01*
X123508057Y-69856388D01*
X123489018Y-69861157D01*
X123469603Y-69864037D01*
X123450000Y-69865000D01*
X121700000Y-69865000D01*
X121680397Y-69864037D01*
X121660982Y-69861157D01*
X121641943Y-69856388D01*
X121623463Y-69849776D01*
X121605721Y-69841384D01*
X121588886Y-69831294D01*
X121573121Y-69819602D01*
X121558579Y-69806421D01*
X121545398Y-69791879D01*
X121533706Y-69776114D01*
X121523616Y-69759279D01*
X121515224Y-69741537D01*
X121508612Y-69723057D01*
X121503843Y-69704018D01*
X121500963Y-69684603D01*
X121500000Y-69665000D01*
X121500000Y-69265000D01*
X121500963Y-69245397D01*
X121503843Y-69225982D01*
X121508612Y-69206943D01*
X121515224Y-69188463D01*
X121523616Y-69170721D01*
X121533706Y-69153886D01*
X121545398Y-69138121D01*
X121558579Y-69123579D01*
X121573121Y-69110398D01*
X121588886Y-69098706D01*
X121605721Y-69088616D01*
X121623463Y-69080224D01*
X121641943Y-69073612D01*
X121660982Y-69068843D01*
X121680397Y-69065963D01*
X121700000Y-69065000D01*
X123450000Y-69065000D01*
X123469603Y-69065963D01*
G37*
G36*
X123469603Y-70335963D02*
G01*
X123489018Y-70338843D01*
X123508057Y-70343612D01*
X123526537Y-70350224D01*
X123544279Y-70358616D01*
X123561114Y-70368706D01*
X123576879Y-70380398D01*
X123591421Y-70393579D01*
X123604602Y-70408121D01*
X123616294Y-70423886D01*
X123626384Y-70440721D01*
X123634776Y-70458463D01*
X123641388Y-70476943D01*
X123646157Y-70495982D01*
X123649037Y-70515397D01*
X123650000Y-70535000D01*
X123650000Y-70935000D01*
X123649037Y-70954603D01*
X123646157Y-70974018D01*
X123641388Y-70993057D01*
X123634776Y-71011537D01*
X123626384Y-71029279D01*
X123616294Y-71046114D01*
X123604602Y-71061879D01*
X123591421Y-71076421D01*
X123576879Y-71089602D01*
X123561114Y-71101294D01*
X123544279Y-71111384D01*
X123526537Y-71119776D01*
X123508057Y-71126388D01*
X123489018Y-71131157D01*
X123469603Y-71134037D01*
X123450000Y-71135000D01*
X121700000Y-71135000D01*
X121680397Y-71134037D01*
X121660982Y-71131157D01*
X121641943Y-71126388D01*
X121623463Y-71119776D01*
X121605721Y-71111384D01*
X121588886Y-71101294D01*
X121573121Y-71089602D01*
X121558579Y-71076421D01*
X121545398Y-71061879D01*
X121533706Y-71046114D01*
X121523616Y-71029279D01*
X121515224Y-71011537D01*
X121508612Y-70993057D01*
X121503843Y-70974018D01*
X121500963Y-70954603D01*
X121500000Y-70935000D01*
X121500000Y-70535000D01*
X121500963Y-70515397D01*
X121503843Y-70495982D01*
X121508612Y-70476943D01*
X121515224Y-70458463D01*
X121523616Y-70440721D01*
X121533706Y-70423886D01*
X121545398Y-70408121D01*
X121558579Y-70393579D01*
X121573121Y-70380398D01*
X121588886Y-70368706D01*
X121605721Y-70358616D01*
X121623463Y-70350224D01*
X121641943Y-70343612D01*
X121660982Y-70338843D01*
X121680397Y-70335963D01*
X121700000Y-70335000D01*
X123450000Y-70335000D01*
X123469603Y-70335963D01*
G37*
G36*
X123469603Y-71605963D02*
G01*
X123489018Y-71608843D01*
X123508057Y-71613612D01*
X123526537Y-71620224D01*
X123544279Y-71628616D01*
X123561114Y-71638706D01*
X123576879Y-71650398D01*
X123591421Y-71663579D01*
X123604602Y-71678121D01*
X123616294Y-71693886D01*
X123626384Y-71710721D01*
X123634776Y-71728463D01*
X123641388Y-71746943D01*
X123646157Y-71765982D01*
X123649037Y-71785397D01*
X123650000Y-71805000D01*
X123650000Y-72205000D01*
X123649037Y-72224603D01*
X123646157Y-72244018D01*
X123641388Y-72263057D01*
X123634776Y-72281537D01*
X123626384Y-72299279D01*
X123616294Y-72316114D01*
X123604602Y-72331879D01*
X123591421Y-72346421D01*
X123576879Y-72359602D01*
X123561114Y-72371294D01*
X123544279Y-72381384D01*
X123526537Y-72389776D01*
X123508057Y-72396388D01*
X123489018Y-72401157D01*
X123469603Y-72404037D01*
X123450000Y-72405000D01*
X121700000Y-72405000D01*
X121680397Y-72404037D01*
X121660982Y-72401157D01*
X121641943Y-72396388D01*
X121623463Y-72389776D01*
X121605721Y-72381384D01*
X121588886Y-72371294D01*
X121573121Y-72359602D01*
X121558579Y-72346421D01*
X121545398Y-72331879D01*
X121533706Y-72316114D01*
X121523616Y-72299279D01*
X121515224Y-72281537D01*
X121508612Y-72263057D01*
X121503843Y-72244018D01*
X121500963Y-72224603D01*
X121500000Y-72205000D01*
X121500000Y-71805000D01*
X121500963Y-71785397D01*
X121503843Y-71765982D01*
X121508612Y-71746943D01*
X121515224Y-71728463D01*
X121523616Y-71710721D01*
X121533706Y-71693886D01*
X121545398Y-71678121D01*
X121558579Y-71663579D01*
X121573121Y-71650398D01*
X121588886Y-71638706D01*
X121605721Y-71628616D01*
X121623463Y-71620224D01*
X121641943Y-71613612D01*
X121660982Y-71608843D01*
X121680397Y-71605963D01*
X121700000Y-71605000D01*
X123450000Y-71605000D01*
X123469603Y-71605963D01*
G37*
%TD*%
D27*
%TO.C,J1*%
X131200000Y-99000000D03*
D28*
X131200000Y-104800000D03*
D29*
X136000000Y-102000000D03*
%TD*%
D17*
%TO.C,J9*%
X113600000Y-74700000D03*
D16*
X116140000Y-74700000D03*
%TD*%
D10*
%TO.C,R6*%
G36*
X113890680Y-69126384D02*
G01*
X113918588Y-69130524D01*
X113945957Y-69137380D01*
X113972521Y-69146885D01*
X113998027Y-69158948D01*
X114022226Y-69173452D01*
X114044888Y-69190259D01*
X114065793Y-69209207D01*
X114084741Y-69230112D01*
X114101548Y-69252774D01*
X114116052Y-69276973D01*
X114128115Y-69302479D01*
X114137620Y-69329043D01*
X114144476Y-69356412D01*
X114148616Y-69384320D01*
X114150000Y-69412500D01*
X114150000Y-69987500D01*
X114148616Y-70015680D01*
X114144476Y-70043588D01*
X114137620Y-70070957D01*
X114128115Y-70097521D01*
X114116052Y-70123027D01*
X114101548Y-70147226D01*
X114084741Y-70169888D01*
X114065793Y-70190793D01*
X114044888Y-70209741D01*
X114022226Y-70226548D01*
X113998027Y-70241052D01*
X113972521Y-70253115D01*
X113945957Y-70262620D01*
X113918588Y-70269476D01*
X113890680Y-70273616D01*
X113862500Y-70275000D01*
X113187500Y-70275000D01*
X113159320Y-70273616D01*
X113131412Y-70269476D01*
X113104043Y-70262620D01*
X113077479Y-70253115D01*
X113051973Y-70241052D01*
X113027774Y-70226548D01*
X113005112Y-70209741D01*
X112984207Y-70190793D01*
X112965259Y-70169888D01*
X112948452Y-70147226D01*
X112933948Y-70123027D01*
X112921885Y-70097521D01*
X112912380Y-70070957D01*
X112905524Y-70043588D01*
X112901384Y-70015680D01*
X112900000Y-69987500D01*
X112900000Y-69412500D01*
X112901384Y-69384320D01*
X112905524Y-69356412D01*
X112912380Y-69329043D01*
X112921885Y-69302479D01*
X112933948Y-69276973D01*
X112948452Y-69252774D01*
X112965259Y-69230112D01*
X112984207Y-69209207D01*
X113005112Y-69190259D01*
X113027774Y-69173452D01*
X113051973Y-69158948D01*
X113077479Y-69146885D01*
X113104043Y-69137380D01*
X113131412Y-69130524D01*
X113159320Y-69126384D01*
X113187500Y-69125000D01*
X113862500Y-69125000D01*
X113890680Y-69126384D01*
G37*
G36*
X115640680Y-69126384D02*
G01*
X115668588Y-69130524D01*
X115695957Y-69137380D01*
X115722521Y-69146885D01*
X115748027Y-69158948D01*
X115772226Y-69173452D01*
X115794888Y-69190259D01*
X115815793Y-69209207D01*
X115834741Y-69230112D01*
X115851548Y-69252774D01*
X115866052Y-69276973D01*
X115878115Y-69302479D01*
X115887620Y-69329043D01*
X115894476Y-69356412D01*
X115898616Y-69384320D01*
X115900000Y-69412500D01*
X115900000Y-69987500D01*
X115898616Y-70015680D01*
X115894476Y-70043588D01*
X115887620Y-70070957D01*
X115878115Y-70097521D01*
X115866052Y-70123027D01*
X115851548Y-70147226D01*
X115834741Y-70169888D01*
X115815793Y-70190793D01*
X115794888Y-70209741D01*
X115772226Y-70226548D01*
X115748027Y-70241052D01*
X115722521Y-70253115D01*
X115695957Y-70262620D01*
X115668588Y-70269476D01*
X115640680Y-70273616D01*
X115612500Y-70275000D01*
X114937500Y-70275000D01*
X114909320Y-70273616D01*
X114881412Y-70269476D01*
X114854043Y-70262620D01*
X114827479Y-70253115D01*
X114801973Y-70241052D01*
X114777774Y-70226548D01*
X114755112Y-70209741D01*
X114734207Y-70190793D01*
X114715259Y-70169888D01*
X114698452Y-70147226D01*
X114683948Y-70123027D01*
X114671885Y-70097521D01*
X114662380Y-70070957D01*
X114655524Y-70043588D01*
X114651384Y-70015680D01*
X114650000Y-69987500D01*
X114650000Y-69412500D01*
X114651384Y-69384320D01*
X114655524Y-69356412D01*
X114662380Y-69329043D01*
X114671885Y-69302479D01*
X114683948Y-69276973D01*
X114698452Y-69252774D01*
X114715259Y-69230112D01*
X114734207Y-69209207D01*
X114755112Y-69190259D01*
X114777774Y-69173452D01*
X114801973Y-69158948D01*
X114827479Y-69146885D01*
X114854043Y-69137380D01*
X114881412Y-69130524D01*
X114909320Y-69126384D01*
X114937500Y-69125000D01*
X115612500Y-69125000D01*
X115640680Y-69126384D01*
G37*
%TD*%
%TO.C,R29*%
G36*
X113890680Y-70826384D02*
G01*
X113918588Y-70830524D01*
X113945957Y-70837380D01*
X113972521Y-70846885D01*
X113998027Y-70858948D01*
X114022226Y-70873452D01*
X114044888Y-70890259D01*
X114065793Y-70909207D01*
X114084741Y-70930112D01*
X114101548Y-70952774D01*
X114116052Y-70976973D01*
X114128115Y-71002479D01*
X114137620Y-71029043D01*
X114144476Y-71056412D01*
X114148616Y-71084320D01*
X114150000Y-71112500D01*
X114150000Y-71687500D01*
X114148616Y-71715680D01*
X114144476Y-71743588D01*
X114137620Y-71770957D01*
X114128115Y-71797521D01*
X114116052Y-71823027D01*
X114101548Y-71847226D01*
X114084741Y-71869888D01*
X114065793Y-71890793D01*
X114044888Y-71909741D01*
X114022226Y-71926548D01*
X113998027Y-71941052D01*
X113972521Y-71953115D01*
X113945957Y-71962620D01*
X113918588Y-71969476D01*
X113890680Y-71973616D01*
X113862500Y-71975000D01*
X113187500Y-71975000D01*
X113159320Y-71973616D01*
X113131412Y-71969476D01*
X113104043Y-71962620D01*
X113077479Y-71953115D01*
X113051973Y-71941052D01*
X113027774Y-71926548D01*
X113005112Y-71909741D01*
X112984207Y-71890793D01*
X112965259Y-71869888D01*
X112948452Y-71847226D01*
X112933948Y-71823027D01*
X112921885Y-71797521D01*
X112912380Y-71770957D01*
X112905524Y-71743588D01*
X112901384Y-71715680D01*
X112900000Y-71687500D01*
X112900000Y-71112500D01*
X112901384Y-71084320D01*
X112905524Y-71056412D01*
X112912380Y-71029043D01*
X112921885Y-71002479D01*
X112933948Y-70976973D01*
X112948452Y-70952774D01*
X112965259Y-70930112D01*
X112984207Y-70909207D01*
X113005112Y-70890259D01*
X113027774Y-70873452D01*
X113051973Y-70858948D01*
X113077479Y-70846885D01*
X113104043Y-70837380D01*
X113131412Y-70830524D01*
X113159320Y-70826384D01*
X113187500Y-70825000D01*
X113862500Y-70825000D01*
X113890680Y-70826384D01*
G37*
G36*
X115640680Y-70826384D02*
G01*
X115668588Y-70830524D01*
X115695957Y-70837380D01*
X115722521Y-70846885D01*
X115748027Y-70858948D01*
X115772226Y-70873452D01*
X115794888Y-70890259D01*
X115815793Y-70909207D01*
X115834741Y-70930112D01*
X115851548Y-70952774D01*
X115866052Y-70976973D01*
X115878115Y-71002479D01*
X115887620Y-71029043D01*
X115894476Y-71056412D01*
X115898616Y-71084320D01*
X115900000Y-71112500D01*
X115900000Y-71687500D01*
X115898616Y-71715680D01*
X115894476Y-71743588D01*
X115887620Y-71770957D01*
X115878115Y-71797521D01*
X115866052Y-71823027D01*
X115851548Y-71847226D01*
X115834741Y-71869888D01*
X115815793Y-71890793D01*
X115794888Y-71909741D01*
X115772226Y-71926548D01*
X115748027Y-71941052D01*
X115722521Y-71953115D01*
X115695957Y-71962620D01*
X115668588Y-71969476D01*
X115640680Y-71973616D01*
X115612500Y-71975000D01*
X114937500Y-71975000D01*
X114909320Y-71973616D01*
X114881412Y-71969476D01*
X114854043Y-71962620D01*
X114827479Y-71953115D01*
X114801973Y-71941052D01*
X114777774Y-71926548D01*
X114755112Y-71909741D01*
X114734207Y-71890793D01*
X114715259Y-71869888D01*
X114698452Y-71847226D01*
X114683948Y-71823027D01*
X114671885Y-71797521D01*
X114662380Y-71770957D01*
X114655524Y-71743588D01*
X114651384Y-71715680D01*
X114650000Y-71687500D01*
X114650000Y-71112500D01*
X114651384Y-71084320D01*
X114655524Y-71056412D01*
X114662380Y-71029043D01*
X114671885Y-71002479D01*
X114683948Y-70976973D01*
X114698452Y-70952774D01*
X114715259Y-70930112D01*
X114734207Y-70909207D01*
X114755112Y-70890259D01*
X114777774Y-70873452D01*
X114801973Y-70858948D01*
X114827479Y-70846885D01*
X114854043Y-70837380D01*
X114881412Y-70830524D01*
X114909320Y-70826384D01*
X114937500Y-70825000D01*
X115612500Y-70825000D01*
X115640680Y-70826384D01*
G37*
%TD*%
%TO.C,R8*%
G36*
X115640680Y-67526384D02*
G01*
X115668588Y-67530524D01*
X115695957Y-67537380D01*
X115722521Y-67546885D01*
X115748027Y-67558948D01*
X115772226Y-67573452D01*
X115794888Y-67590259D01*
X115815793Y-67609207D01*
X115834741Y-67630112D01*
X115851548Y-67652774D01*
X115866052Y-67676973D01*
X115878115Y-67702479D01*
X115887620Y-67729043D01*
X115894476Y-67756412D01*
X115898616Y-67784320D01*
X115900000Y-67812500D01*
X115900000Y-68387500D01*
X115898616Y-68415680D01*
X115894476Y-68443588D01*
X115887620Y-68470957D01*
X115878115Y-68497521D01*
X115866052Y-68523027D01*
X115851548Y-68547226D01*
X115834741Y-68569888D01*
X115815793Y-68590793D01*
X115794888Y-68609741D01*
X115772226Y-68626548D01*
X115748027Y-68641052D01*
X115722521Y-68653115D01*
X115695957Y-68662620D01*
X115668588Y-68669476D01*
X115640680Y-68673616D01*
X115612500Y-68675000D01*
X114937500Y-68675000D01*
X114909320Y-68673616D01*
X114881412Y-68669476D01*
X114854043Y-68662620D01*
X114827479Y-68653115D01*
X114801973Y-68641052D01*
X114777774Y-68626548D01*
X114755112Y-68609741D01*
X114734207Y-68590793D01*
X114715259Y-68569888D01*
X114698452Y-68547226D01*
X114683948Y-68523027D01*
X114671885Y-68497521D01*
X114662380Y-68470957D01*
X114655524Y-68443588D01*
X114651384Y-68415680D01*
X114650000Y-68387500D01*
X114650000Y-67812500D01*
X114651384Y-67784320D01*
X114655524Y-67756412D01*
X114662380Y-67729043D01*
X114671885Y-67702479D01*
X114683948Y-67676973D01*
X114698452Y-67652774D01*
X114715259Y-67630112D01*
X114734207Y-67609207D01*
X114755112Y-67590259D01*
X114777774Y-67573452D01*
X114801973Y-67558948D01*
X114827479Y-67546885D01*
X114854043Y-67537380D01*
X114881412Y-67530524D01*
X114909320Y-67526384D01*
X114937500Y-67525000D01*
X115612500Y-67525000D01*
X115640680Y-67526384D01*
G37*
G36*
X113890680Y-67526384D02*
G01*
X113918588Y-67530524D01*
X113945957Y-67537380D01*
X113972521Y-67546885D01*
X113998027Y-67558948D01*
X114022226Y-67573452D01*
X114044888Y-67590259D01*
X114065793Y-67609207D01*
X114084741Y-67630112D01*
X114101548Y-67652774D01*
X114116052Y-67676973D01*
X114128115Y-67702479D01*
X114137620Y-67729043D01*
X114144476Y-67756412D01*
X114148616Y-67784320D01*
X114150000Y-67812500D01*
X114150000Y-68387500D01*
X114148616Y-68415680D01*
X114144476Y-68443588D01*
X114137620Y-68470957D01*
X114128115Y-68497521D01*
X114116052Y-68523027D01*
X114101548Y-68547226D01*
X114084741Y-68569888D01*
X114065793Y-68590793D01*
X114044888Y-68609741D01*
X114022226Y-68626548D01*
X113998027Y-68641052D01*
X113972521Y-68653115D01*
X113945957Y-68662620D01*
X113918588Y-68669476D01*
X113890680Y-68673616D01*
X113862500Y-68675000D01*
X113187500Y-68675000D01*
X113159320Y-68673616D01*
X113131412Y-68669476D01*
X113104043Y-68662620D01*
X113077479Y-68653115D01*
X113051973Y-68641052D01*
X113027774Y-68626548D01*
X113005112Y-68609741D01*
X112984207Y-68590793D01*
X112965259Y-68569888D01*
X112948452Y-68547226D01*
X112933948Y-68523027D01*
X112921885Y-68497521D01*
X112912380Y-68470957D01*
X112905524Y-68443588D01*
X112901384Y-68415680D01*
X112900000Y-68387500D01*
X112900000Y-67812500D01*
X112901384Y-67784320D01*
X112905524Y-67756412D01*
X112912380Y-67729043D01*
X112921885Y-67702479D01*
X112933948Y-67676973D01*
X112948452Y-67652774D01*
X112965259Y-67630112D01*
X112984207Y-67609207D01*
X113005112Y-67590259D01*
X113027774Y-67573452D01*
X113051973Y-67558948D01*
X113077479Y-67546885D01*
X113104043Y-67537380D01*
X113131412Y-67530524D01*
X113159320Y-67526384D01*
X113187500Y-67525000D01*
X113862500Y-67525000D01*
X113890680Y-67526384D01*
G37*
%TD*%
%TO.C,R11*%
G36*
X119590680Y-74826384D02*
G01*
X119618588Y-74830524D01*
X119645957Y-74837380D01*
X119672521Y-74846885D01*
X119698027Y-74858948D01*
X119722226Y-74873452D01*
X119744888Y-74890259D01*
X119765793Y-74909207D01*
X119784741Y-74930112D01*
X119801548Y-74952774D01*
X119816052Y-74976973D01*
X119828115Y-75002479D01*
X119837620Y-75029043D01*
X119844476Y-75056412D01*
X119848616Y-75084320D01*
X119850000Y-75112500D01*
X119850000Y-75687500D01*
X119848616Y-75715680D01*
X119844476Y-75743588D01*
X119837620Y-75770957D01*
X119828115Y-75797521D01*
X119816052Y-75823027D01*
X119801548Y-75847226D01*
X119784741Y-75869888D01*
X119765793Y-75890793D01*
X119744888Y-75909741D01*
X119722226Y-75926548D01*
X119698027Y-75941052D01*
X119672521Y-75953115D01*
X119645957Y-75962620D01*
X119618588Y-75969476D01*
X119590680Y-75973616D01*
X119562500Y-75975000D01*
X118887500Y-75975000D01*
X118859320Y-75973616D01*
X118831412Y-75969476D01*
X118804043Y-75962620D01*
X118777479Y-75953115D01*
X118751973Y-75941052D01*
X118727774Y-75926548D01*
X118705112Y-75909741D01*
X118684207Y-75890793D01*
X118665259Y-75869888D01*
X118648452Y-75847226D01*
X118633948Y-75823027D01*
X118621885Y-75797521D01*
X118612380Y-75770957D01*
X118605524Y-75743588D01*
X118601384Y-75715680D01*
X118600000Y-75687500D01*
X118600000Y-75112500D01*
X118601384Y-75084320D01*
X118605524Y-75056412D01*
X118612380Y-75029043D01*
X118621885Y-75002479D01*
X118633948Y-74976973D01*
X118648452Y-74952774D01*
X118665259Y-74930112D01*
X118684207Y-74909207D01*
X118705112Y-74890259D01*
X118727774Y-74873452D01*
X118751973Y-74858948D01*
X118777479Y-74846885D01*
X118804043Y-74837380D01*
X118831412Y-74830524D01*
X118859320Y-74826384D01*
X118887500Y-74825000D01*
X119562500Y-74825000D01*
X119590680Y-74826384D01*
G37*
G36*
X121340680Y-74826384D02*
G01*
X121368588Y-74830524D01*
X121395957Y-74837380D01*
X121422521Y-74846885D01*
X121448027Y-74858948D01*
X121472226Y-74873452D01*
X121494888Y-74890259D01*
X121515793Y-74909207D01*
X121534741Y-74930112D01*
X121551548Y-74952774D01*
X121566052Y-74976973D01*
X121578115Y-75002479D01*
X121587620Y-75029043D01*
X121594476Y-75056412D01*
X121598616Y-75084320D01*
X121600000Y-75112500D01*
X121600000Y-75687500D01*
X121598616Y-75715680D01*
X121594476Y-75743588D01*
X121587620Y-75770957D01*
X121578115Y-75797521D01*
X121566052Y-75823027D01*
X121551548Y-75847226D01*
X121534741Y-75869888D01*
X121515793Y-75890793D01*
X121494888Y-75909741D01*
X121472226Y-75926548D01*
X121448027Y-75941052D01*
X121422521Y-75953115D01*
X121395957Y-75962620D01*
X121368588Y-75969476D01*
X121340680Y-75973616D01*
X121312500Y-75975000D01*
X120637500Y-75975000D01*
X120609320Y-75973616D01*
X120581412Y-75969476D01*
X120554043Y-75962620D01*
X120527479Y-75953115D01*
X120501973Y-75941052D01*
X120477774Y-75926548D01*
X120455112Y-75909741D01*
X120434207Y-75890793D01*
X120415259Y-75869888D01*
X120398452Y-75847226D01*
X120383948Y-75823027D01*
X120371885Y-75797521D01*
X120362380Y-75770957D01*
X120355524Y-75743588D01*
X120351384Y-75715680D01*
X120350000Y-75687500D01*
X120350000Y-75112500D01*
X120351384Y-75084320D01*
X120355524Y-75056412D01*
X120362380Y-75029043D01*
X120371885Y-75002479D01*
X120383948Y-74976973D01*
X120398452Y-74952774D01*
X120415259Y-74930112D01*
X120434207Y-74909207D01*
X120455112Y-74890259D01*
X120477774Y-74873452D01*
X120501973Y-74858948D01*
X120527479Y-74846885D01*
X120554043Y-74837380D01*
X120581412Y-74830524D01*
X120609320Y-74826384D01*
X120637500Y-74825000D01*
X121312500Y-74825000D01*
X121340680Y-74826384D01*
G37*
%TD*%
M02*
