M48
; DRILL file {KiCad 5.1.5-52549c5~84~ubuntu19.10.1} date So 05 Jan 2020 17:23:57 CET
; FORMAT={-:-/ absolute / inch / decimal}
; #@! TF.CreationDate,2020-01-05T17:23:57+01:00
; #@! TF.GenerationSoftware,Kicad,Pcbnew,5.1.5-52549c5~84~ubuntu19.10.1
FMAT,2
INCH
T1C0.0120
T2C0.0256
T3C0.0315
T4C0.0394
T5C0.0551
T6C0.0315
T7C0.1083
%
G90
G05
T1
X3.374Y-3.8661
X3.3819Y-4.0157
X3.748Y-3.252
X4.0591Y-3.5984
X4.0827Y-3.9055
X4.1575Y-3.2638
X4.1732Y-3.4646
X4.3701Y-3.6417
X4.3701Y-3.6713
X4.3701Y-3.7008
X4.3701Y-3.7303
X4.3701Y-3.7598
X4.3996Y-3.6417
X4.3996Y-3.6713
X4.3996Y-3.7008
X4.3996Y-3.7303
X4.3996Y-3.7598
X4.4252Y-4.1614
X4.4291Y-3.6417
X4.4291Y-3.6713
X4.4291Y-3.7008
X4.4291Y-3.7303
X4.4291Y-3.7598
X4.622Y-4.1909
X4.7756Y-4.063
X5.0039Y-3.622
X5.0039Y-3.6496
X5.0039Y-3.6772
X5.0039Y-3.7047
X5.0039Y-3.7323
X5.0315Y-3.622
X5.0315Y-3.6496
X5.0315Y-3.6772
X5.0315Y-3.7047
X5.0315Y-3.7323
X5.0591Y-3.622
X5.0591Y-3.6496
X5.0591Y-3.6772
X5.0591Y-3.7047
X5.0591Y-3.7323
T2
X3.3319Y-2.7921
X3.3319Y-2.8421
X3.3319Y-2.8921
X3.3319Y-2.9421
X3.6547Y-2.8409
X3.6547Y-2.8909
X3.6547Y-2.9409
X3.374Y-3.6902
X3.374Y-3.7402
T4
X3.7732Y-4.3248
X3.8717Y-4.128
X3.9701Y-4.3248
X3.4252Y-2.4803
X3.4252Y-2.5803
X3.5252Y-2.4803
X3.5252Y-2.5803
X3.6252Y-2.4803
X3.6252Y-2.5803
X3.7252Y-2.4803
X3.7252Y-2.5803
X3.8252Y-2.4803
X3.8252Y-2.5803
X3.9252Y-2.4803
X3.9252Y-2.5803
X4.0252Y-2.4803
X4.0252Y-2.5803
X4.1252Y-2.4803
X4.1252Y-2.5803
X4.2252Y-2.4803
X4.2252Y-2.5803
X4.3252Y-2.4803
X4.3252Y-2.5803
X4.4252Y-2.4803
X4.4252Y-2.5803
X4.5252Y-2.4803
X4.5252Y-2.5803
X4.6252Y-2.4803
X4.6252Y-2.5803
X4.7252Y-2.4803
X4.7252Y-2.5803
X4.8252Y-2.4803
X4.8252Y-2.5803
X4.9252Y-2.4803
X4.9252Y-2.5803
X5.0252Y-2.4803
X5.0252Y-2.5803
X5.1252Y-2.4803
X5.1252Y-2.5803
X5.2252Y-2.4803
X5.2252Y-2.5803
X5.3252Y-2.4803
X5.3252Y-2.5803
X4.4724Y-2.9409
X4.5724Y-2.9409
T5
X5.024Y-4.2657
X5.2209Y-4.2657
X3.7724Y-4.1138
X3.9693Y-4.1138
X4.1661Y-4.1138
T6
X4.3819Y-4.4331
X4.7835Y-4.4331
T7
X3.2335Y-2.5303
X3.2335Y-4.4594
X5.5169Y-2.5303
X5.5169Y-4.4594
T3
G00X5.1142Y-3.8976
M15
G01X5.2165Y-3.8976
M16
G05
G00X5.122Y-4.126
M15
G01X5.2087Y-4.126
M16
G05
G00X5.3543Y-4.0591
M15
G01X5.3543Y-3.9724
M16
G05
T0
M30
