%TF.GenerationSoftware,KiCad,Pcbnew,5.1.5-52549c5~84~ubuntu19.10.1*%
%TF.CreationDate,2020-01-05T17:23:38+01:00*%
%TF.ProjectId,RPi heating control hat,52506920-6865-4617-9469-6e6720636f6e,rev?*%
%TF.SameCoordinates,Original*%
%TF.FileFunction,Soldermask,Bot*%
%TF.FilePolarity,Negative*%
%FSLAX46Y46*%
G04 Gerber Fmt 4.6, Leading zero omitted, Abs format (unit mm)*
G04 Created by KiCad (PCBNEW 5.1.5-52549c5~84~ubuntu19.10.1) date 2020-01-05 17:23:38*
%MOMM*%
%LPD*%
G04 APERTURE LIST*
%ADD10O,1.200000X1.200000*%
%ADD11R,1.200000X1.200000*%
%ADD12O,2.200000X3.800000*%
%ADD13C,0.100000*%
%ADD14C,1.000000*%
%ADD15O,1.900000X1.900000*%
%ADD16R,1.900000X1.900000*%
%ADD17C,6.400000*%
%ADD18C,1.800000*%
%ADD19R,1.800000X1.800000*%
%ADD20R,4.600000X2.000000*%
%ADD21O,4.200000X2.000000*%
%ADD22O,2.000000X4.200000*%
G04 APERTURE END LIST*
D10*
%TO.C,J4*%
X85700000Y-93730000D03*
D11*
X85700000Y-95000000D03*
%TD*%
D12*
%TO.C,J7*%
X132610000Y-108350000D03*
D13*
G36*
X128461955Y-106451324D02*
G01*
X128488650Y-106455284D01*
X128514828Y-106461841D01*
X128540238Y-106470933D01*
X128564634Y-106482472D01*
X128587782Y-106496346D01*
X128609458Y-106512422D01*
X128629454Y-106530546D01*
X128647578Y-106550542D01*
X128663654Y-106572218D01*
X128677528Y-106595366D01*
X128689067Y-106619762D01*
X128698159Y-106645172D01*
X128704716Y-106671350D01*
X128708676Y-106698045D01*
X128710000Y-106725000D01*
X128710000Y-109975000D01*
X128708676Y-110001955D01*
X128704716Y-110028650D01*
X128698159Y-110054828D01*
X128689067Y-110080238D01*
X128677528Y-110104634D01*
X128663654Y-110127782D01*
X128647578Y-110149458D01*
X128629454Y-110169454D01*
X128609458Y-110187578D01*
X128587782Y-110203654D01*
X128564634Y-110217528D01*
X128540238Y-110229067D01*
X128514828Y-110238159D01*
X128488650Y-110244716D01*
X128461955Y-110248676D01*
X128435000Y-110250000D01*
X126785000Y-110250000D01*
X126758045Y-110248676D01*
X126731350Y-110244716D01*
X126705172Y-110238159D01*
X126679762Y-110229067D01*
X126655366Y-110217528D01*
X126632218Y-110203654D01*
X126610542Y-110187578D01*
X126590546Y-110169454D01*
X126572422Y-110149458D01*
X126556346Y-110127782D01*
X126542472Y-110104634D01*
X126530933Y-110080238D01*
X126521841Y-110054828D01*
X126515284Y-110028650D01*
X126511324Y-110001955D01*
X126510000Y-109975000D01*
X126510000Y-106725000D01*
X126511324Y-106698045D01*
X126515284Y-106671350D01*
X126521841Y-106645172D01*
X126530933Y-106619762D01*
X126542472Y-106595366D01*
X126556346Y-106572218D01*
X126572422Y-106550542D01*
X126590546Y-106530546D01*
X126610542Y-106512422D01*
X126632218Y-106496346D01*
X126655366Y-106482472D01*
X126679762Y-106470933D01*
X126705172Y-106461841D01*
X126731350Y-106455284D01*
X126758045Y-106451324D01*
X126785000Y-106450000D01*
X128435000Y-106450000D01*
X128461955Y-106451324D01*
G37*
%TD*%
D14*
%TO.C,SW1*%
X121500000Y-112600000D03*
X111300000Y-112600000D03*
%TD*%
D15*
%TO.C,J3*%
X132720000Y-63000000D03*
X130180000Y-63000000D03*
X127640000Y-63000000D03*
X99700000Y-65540000D03*
X107320000Y-65540000D03*
X120020000Y-63000000D03*
X104780000Y-63000000D03*
X109860000Y-63000000D03*
X127640000Y-65540000D03*
X89540000Y-65540000D03*
X135260000Y-65540000D03*
X117480000Y-65540000D03*
X99700000Y-63000000D03*
X89540000Y-63000000D03*
X94620000Y-63000000D03*
X102240000Y-63000000D03*
X92080000Y-65540000D03*
X135260000Y-63000000D03*
X104780000Y-65540000D03*
X122560000Y-65540000D03*
X97160000Y-63000000D03*
X114940000Y-65540000D03*
X122560000Y-63000000D03*
X92080000Y-63000000D03*
X112400000Y-63000000D03*
X97160000Y-65540000D03*
X112400000Y-65540000D03*
X107320000Y-63000000D03*
X130180000Y-65540000D03*
X125100000Y-65540000D03*
X117480000Y-63000000D03*
X125100000Y-63000000D03*
D16*
X87000000Y-65540000D03*
D15*
X132720000Y-65540000D03*
X109860000Y-65540000D03*
X114940000Y-63000000D03*
X94620000Y-65540000D03*
X102240000Y-65540000D03*
X120020000Y-65540000D03*
X87000000Y-63000000D03*
D17*
X82130000Y-113270000D03*
X140130000Y-113270000D03*
X140130000Y-64270000D03*
X82130000Y-64270000D03*
%TD*%
D18*
%TO.C,J5*%
X95840000Y-109850000D03*
X98340000Y-104850000D03*
D19*
X100840000Y-109850000D03*
%TD*%
D10*
%TO.C,J2*%
X92830000Y-74700000D03*
X92830000Y-73430000D03*
D11*
X92830000Y-72160000D03*
%TD*%
D12*
%TO.C,J8*%
X105820000Y-104490000D03*
X100820000Y-104490000D03*
D13*
G36*
X96671955Y-102591324D02*
G01*
X96698650Y-102595284D01*
X96724828Y-102601841D01*
X96750238Y-102610933D01*
X96774634Y-102622472D01*
X96797782Y-102636346D01*
X96819458Y-102652422D01*
X96839454Y-102670546D01*
X96857578Y-102690542D01*
X96873654Y-102712218D01*
X96887528Y-102735366D01*
X96899067Y-102759762D01*
X96908159Y-102785172D01*
X96914716Y-102811350D01*
X96918676Y-102838045D01*
X96920000Y-102865000D01*
X96920000Y-106115000D01*
X96918676Y-106141955D01*
X96914716Y-106168650D01*
X96908159Y-106194828D01*
X96899067Y-106220238D01*
X96887528Y-106244634D01*
X96873654Y-106267782D01*
X96857578Y-106289458D01*
X96839454Y-106309454D01*
X96819458Y-106327578D01*
X96797782Y-106343654D01*
X96774634Y-106357528D01*
X96750238Y-106369067D01*
X96724828Y-106378159D01*
X96698650Y-106384716D01*
X96671955Y-106388676D01*
X96645000Y-106390000D01*
X94995000Y-106390000D01*
X94968045Y-106388676D01*
X94941350Y-106384716D01*
X94915172Y-106378159D01*
X94889762Y-106369067D01*
X94865366Y-106357528D01*
X94842218Y-106343654D01*
X94820542Y-106327578D01*
X94800546Y-106309454D01*
X94782422Y-106289458D01*
X94766346Y-106267782D01*
X94752472Y-106244634D01*
X94740933Y-106220238D01*
X94731841Y-106194828D01*
X94725284Y-106168650D01*
X94721324Y-106141955D01*
X94720000Y-106115000D01*
X94720000Y-102865000D01*
X94721324Y-102838045D01*
X94725284Y-102811350D01*
X94731841Y-102785172D01*
X94740933Y-102759762D01*
X94752472Y-102735366D01*
X94766346Y-102712218D01*
X94782422Y-102690542D01*
X94800546Y-102670546D01*
X94820542Y-102652422D01*
X94842218Y-102636346D01*
X94865366Y-102622472D01*
X94889762Y-102610933D01*
X94915172Y-102601841D01*
X94941350Y-102595284D01*
X94968045Y-102591324D01*
X94995000Y-102590000D01*
X96645000Y-102590000D01*
X96671955Y-102591324D01*
G37*
%TD*%
D10*
%TO.C,J6*%
X84630000Y-74730000D03*
X84630000Y-73460000D03*
X84630000Y-72190000D03*
D11*
X84630000Y-70920000D03*
%TD*%
D20*
%TO.C,J1*%
X131200000Y-99000000D03*
D21*
X131200000Y-104800000D03*
D22*
X136000000Y-102000000D03*
%TD*%
D16*
%TO.C,J9*%
X113600000Y-74700000D03*
D15*
X116140000Y-74700000D03*
%TD*%
M02*
